<svg xmlns="http://www.w3.org/2000/svg" width="200" height="60" viewBox="0 0 200 60">
  <line x1="6" y1="30.0" x2="194" y2="30.0" stroke="#999" stroke-width="0.5"/>
  <polyline points="6.0,30.0 8.4,25.4 10.8,21.3 13.1,18.1 15.5,15.8 17.9,14.2 20.3,13.2 22.7,12.3 25.0,11.5 27.4,10.7 29.8,10.0 32.2,9.5 34.6,9.3 36.9,9.3 39.3,9.5 41.7,9.7 44.1,9.9 46.5,10.1 48.8,10.4 51.2,10.8 53.6,11.3 56.0,12.0 58.4,12.7 60.7,13.4 63.1,14.1 65.5,14.8 67.9,15.6 70.3,16.5 72.6,17.4 75.0,18.4 77.4,19.5 79.8,20.4 82.2,21.4 84.5,22.4 86.9,23.4 89.3,24.4 91.7,25.6 94.1,26.8 96.4,27.9 98.8,29.0 101.2,30.0 103.6,31.0 105.9,32.1 108.3,33.2 110.7,34.4 113.1,35.6 115.5,36.6 117.8,37.6 120.2,38.6 122.6,39.6 125.0,40.5 127.4,41.6 129.7,42.6 132.1,43.5 134.5,44.4 136.9,45.2 139.3,45.9 141.6,46.6 144.0,47.3 146.4,48.0 148.8,48.7 151.2,49.2 153.5,49.6 155.9,49.9 158.3,50.1 160.7,50.3 163.1,50.5 165.4,50.7 167.8,50.7 170.2,50.5 172.6,50.0 175.0,49.3 177.3,48.5 179.7,47.7 182.1,46.8 184.5,45.8 186.9,44.2 189.2,41.9 191.6,38.7 194.0,34.6" fill="none" stroke="#3b82f6" stroke-width="1.5"/>
</svg>