<svg xmlns="http://www.w3.org/2000/svg" viewBox="0 0 200 60">
<line x1="6" y1="30.0" x2="194" y2="30.0" stroke="#ccc" stroke-width="0.75"/>
  <path d="M6.0 30.0 L6.7 28.5 L7.5 27.1 L8.2 25.7 L8.9 24.3 L9.7 23.0 L10.4 21.8 L11.2 20.7 L11.9 19.6 L12.6 18.6 L13.4 17.8 L14.1 17.0 L14.8 16.3 L15.6 15.7 L16.3 15.1 L17.1 14.6 L17.8 14.2 L18.5 13.9 L19.3 13.5 L20.0 13.2 L20.7 13.0 L21.5 12.7 L22.2 12.4 L23.0 12.2 L23.7 11.9 L24.4 11.7 L25.2 11.4 L25.9 11.2 L26.6 10.9 L27.4 10.7 L28.1 10.5 L28.9 10.2 L29.6 10.0 L30.3 9.9 L31.1 9.7 L31.8 9.6 L32.5 9.5 L33.3 9.4 L34.0 9.3 L34.8 9.3 L35.5 9.3 L36.2 9.3 L37.0 9.4 L37.7 9.4 L38.4 9.5 L39.2 9.5 L39.9 9.6 L40.7 9.6 L41.4 9.7 L42.1 9.8 L42.9 9.8 L43.6 9.9 L44.3 10.0 L45.1 10.0 L45.8 10.1 L46.5 10.1 L47.3 10.2 L48.0 10.3 L48.8 10.4 L49.5 10.5 L50.2 10.7 L51.0 10.8 L51.7 11.0 L52.4 11.1 L53.2 11.3 L53.9 11.5 L54.7 11.7 L55.4 12.0 L56.1 12.2 L56.9 12.4 L57.6 12.6 L58.3 12.9 L59.1 13.1 L59.8 13.3 L60.6 13.5 L61.3 13.8 L62.0 14.0 L62.8 14.2 L63.5 14.4 L64.2 14.6 L65.0 14.9 L65.7 15.1 L66.5 15.3 L67.2 15.6 L67.9 15.8 L68.7 16.1 L69.4 16.4 L70.1 16.6 L70.9 16.9 L71.6 17.2 L72.4 17.5 L73.1 17.9 L73.8 18.2 L74.6 18.5 L75.3 18.8 L76.0 19.1 L76.8 19.5 L77.5 19.8 L78.3 20.1 L79.0 20.4 L79.7 20.7 L80.5 21.0 L81.2 21.3 L81.9 21.6 L82.7 21.9 L83.4 22.2 L84.1 22.5 L84.9 22.8 L85.6 23.1 L86.4 23.4 L87.1 23.8 L87.8 24.1 L88.6 24.5 L89.3 24.8 L90.0 25.2 L90.8 25.5 L91.5 25.9 L92.3 26.2 L93.0 26.6 L93.7 27.0 L94.5 27.3 L95.2 27.7 L95.9 28.0 L96.7 28.4 L97.4 28.7 L98.2 29.0 L98.9 29.4 L99.6 29.7 L100.4 30.0 L101.1 30.3 L101.8 30.6 L102.6 31.0 L103.3 31.3 L104.1 31.6 L104.8 32.0 L105.5 32.3 L106.3 32.7 L107.0 33.0 L107.7 33.4 L108.5 33.8 L109.2 34.1 L110.0 34.5 L110.7 34.8 L111.4 35.2 L112.2 35.5 L112.9 35.9 L113.6 36.2 L114.4 36.6 L115.1 36.9 L115.9 37.2 L116.6 37.5 L117.3 37.8 L118.1 38.1 L118.8 38.4 L119.5 38.7 L120.3 39.0 L121.0 39.3 L121.7 39.6 L122.5 39.9 L123.2 40.2 L124.0 40.5 L124.7 40.9 L125.4 41.2 L126.2 41.5 L126.9 41.8 L127.6 42.1 L128.4 42.5 L129.1 42.8 L129.9 43.1 L130.6 43.4 L131.3 43.6 L132.1 43.9 L132.8 44.2 L133.5 44.4 L134.3 44.7 L135.0 44.9 L135.8 45.1 L136.5 45.4 L137.2 45.6 L138.0 45.8 L138.7 46.0 L139.4 46.2 L140.2 46.5 L140.9 46.7 L141.7 46.9 L142.4 47.1 L143.1 47.4 L143.9 47.6 L144.6 47.8 L145.3 48.0 L146.1 48.3 L146.8 48.5 L147.6 48.7 L148.3 48.9 L149.0 49.0 L149.8 49.2 L150.5 49.3 L151.2 49.5 L152.0 49.6 L152.7 49.7 L153.5 49.8 L154.2 49.9 L154.9 49.9 L155.7 50.0 L156.4 50.0 L157.1 50.1 L157.9 50.2 L158.6 50.2 L159.3 50.3 L160.1 50.4 L160.8 50.4 L161.6 50.5 L162.3 50.5 L163.0 50.6 L163.8 50.6 L164.5 50.7 L165.2 50.7 L166.0 50.7 L166.7 50.7 L167.5 50.6 L168.2 50.5 L168.9 50.4 L169.7 50.3 L170.4 50.1 L171.1 50.0 L171.9 49.8 L172.6 49.5 L173.4 49.3 L174.1 49.1 L174.8 48.8 L175.6 48.6 L176.3 48.3 L177.0 48.1 L177.8 47.8 L178.5 47.6 L179.3 47.3 L180.0 47.0 L180.7 46.8 L181.5 46.5 L182.2 46.1 L182.9 45.8 L183.7 45.4 L184.4 44.9 L185.2 44.3 L185.9 43.7 L186.6 43.0 L187.4 42.2 L188.1 41.4 L188.8 40.4 L189.6 39.3 L190.3 38.2 L191.1 37.0 L191.8 35.7 L192.5 34.3 L193.3 32.9 L194.0 31.5" fill="none" stroke="#3b82f6" stroke-width="1.5" stroke-linecap="round" stroke-linejoin="round"/>
</svg>