<svg xmlns="http://www.w3.org/2000/svg" viewBox="0 0 200 60">
<line x1="6" y1="30.0" x2="194" y2="30.0" stroke="#ccc" stroke-width="0.75"/>
  <path d="M6.0 9.3 L6.7 9.3 L7.5 9.3 L8.2 9.4 L8.9 9.4 L9.7 9.5 L10.4 9.5 L11.2 9.6 L11.9 9.7 L12.6 9.8 L13.4 9.9 L14.1 10.1 L14.8 10.2 L15.6 10.4 L16.3 10.5 L17.1 10.7 L17.8 10.9 L18.5 11.1 L19.3 11.3 L20.0 11.5 L20.7 11.8 L21.5 12.0 L22.2 12.3 L23.0 12.5 L23.7 12.8 L24.4 13.1 L25.2 13.4 L25.9 13.7 L26.6 14.0 L27.4 14.3 L28.1 14.7 L28.9 15.0 L29.6 15.4 L30.3 15.7 L31.1 16.1 L31.8 16.5 L32.5 16.9 L33.3 17.3 L34.0 17.7 L34.8 18.1 L35.5 18.5 L36.2 18.9 L37.0 19.4 L37.7 19.8 L38.4 20.2 L39.2 20.7 L39.9 21.2 L40.7 21.6 L41.4 22.1 L42.1 22.6 L42.9 23.0 L43.6 23.5 L44.3 24.0 L45.1 24.5 L45.8 25.0 L46.5 25.5 L47.3 26.0 L48.0 26.5 L48.8 27.0 L49.5 27.5 L50.2 28.0 L51.0 28.5 L51.7 29.0 L52.4 29.5 L53.2 30.0 L53.9 30.5 L54.7 31.0 L55.4 31.5 L56.1 32.0 L56.9 32.5 L57.6 33.0 L58.3 33.5 L59.1 34.0 L59.8 34.5 L60.6 35.0 L61.3 35.5 L62.0 36.0 L62.8 36.5 L63.5 37.0 L64.2 37.4 L65.0 37.9 L65.7 38.4 L66.5 38.8 L67.2 39.3 L67.9 39.8 L68.7 40.2 L69.4 40.6 L70.1 41.1 L70.9 41.5 L71.6 41.9 L72.4 42.3 L73.1 42.7 L73.8 43.1 L74.6 43.5 L75.3 43.9 L76.0 44.3 L76.8 44.6 L77.5 45.0 L78.3 45.3 L79.0 45.7 L79.7 46.0 L80.5 46.3 L81.2 46.6 L81.9 46.9 L82.7 47.2 L83.4 47.5 L84.1 47.7 L84.9 48.0 L85.6 48.2 L86.4 48.5 L87.1 48.7 L87.8 48.9 L88.6 49.1 L89.3 49.3 L90.0 49.5 L90.8 49.6 L91.5 49.8 L92.3 49.9 L93.0 50.1 L93.7 50.2 L94.5 50.3 L95.2 50.4 L95.9 50.5 L96.7 50.5 L97.4 50.6 L98.2 50.6 L98.9 50.7 L99.6 50.7 L100.4 50.7 L101.1 50.7 L101.8 50.7 L102.6 50.6 L103.3 50.6 L104.1 50.5 L104.8 50.5 L105.5 50.4 L106.3 50.3 L107.0 50.2 L107.7 50.1 L108.5 49.9 L109.2 49.8 L110.0 49.6 L110.7 49.5 L111.4 49.3 L112.2 49.1 L112.9 48.9 L113.6 48.7 L114.4 48.5 L115.1 48.2 L115.9 48.0 L116.6 47.7 L117.3 47.5 L118.1 47.2 L118.8 46.9 L119.5 46.6 L120.3 46.3 L121.0 46.0 L121.7 45.7 L122.5 45.3 L123.2 45.0 L124.0 44.6 L124.7 44.3 L125.4 43.9 L126.2 43.5 L126.9 43.1 L127.6 42.7 L128.4 42.3 L129.1 41.9 L129.9 41.5 L130.6 41.1 L131.3 40.6 L132.1 40.2 L132.8 39.8 L133.5 39.3 L134.3 38.8 L135.0 38.4 L135.8 37.9 L136.5 37.4 L137.2 37.0 L138.0 36.5 L138.7 36.0 L139.4 35.5 L140.2 35.0 L140.9 34.5 L141.7 34.0 L142.4 33.5 L143.1 33.0 L143.9 32.5 L144.6 32.0 L145.3 31.5 L146.1 31.0 L146.8 30.5 L147.6 30.0 L148.3 29.5 L149.0 29.0 L149.8 28.5 L150.5 28.0 L151.2 27.5 L152.0 27.0 L152.7 26.5 L153.5 26.0 L154.2 25.5 L154.9 25.0 L155.7 24.5 L156.4 24.0 L157.1 23.5 L157.9 23.0 L158.6 22.6 L159.3 22.1 L160.1 21.6 L160.8 21.2 L161.6 20.7 L162.3 20.2 L163.0 19.8 L163.8 19.4 L164.5 18.9 L165.2 18.5 L166.0 18.1 L166.7 17.7 L167.5 17.3 L168.2 16.9 L168.9 16.5 L169.7 16.1 L170.4 15.7 L171.1 15.4 L171.9 15.0 L172.6 14.7 L173.4 14.3 L174.1 14.0 L174.8 13.7 L175.6 13.4 L176.3 13.1 L177.0 12.8 L177.8 12.5 L178.5 12.3 L179.3 12.0 L180.0 11.8 L180.7 11.5 L181.5 11.3 L182.2 11.1 L182.9 10.9 L183.7 10.7 L184.4 10.5 L185.2 10.4 L185.9 10.2 L186.6 10.1 L187.4 9.9 L188.1 9.8 L188.8 9.7 L189.6 9.6 L190.3 9.5 L191.1 9.5 L191.8 9.4 L192.5 9.4 L193.3 9.3 L194.0 9.3" fill="none" stroke="#3b82f6" stroke-width="1.5" stroke-linecap="round" stroke-linejoin="round"/>
</svg>