<svg xmlns="http://www.w3.org/2000/svg" width="200" height="60" viewBox="0 0 200 60">
  <line x1="6" y1="30.0" x2="194" y2="30.0" stroke="#999" stroke-width="0.5"/>
  <polyline points="6.0,9.3 8.4,9.4 10.8,9.6 13.1,9.9 15.5,10.3 17.9,10.9 20.3,11.6 22.7,12.4 25.0,13.3 27.4,14.3 29.8,15.4 32.2,16.6 34.6,17.8 36.9,19.2 39.3,20.6 41.7,22.1 44.1,23.6 46.5,25.2 48.8,26.8 51.2,28.4 53.6,30.0 56.0,31.6 58.4,33.2 60.7,34.8 63.1,36.4 65.5,37.9 67.9,39.4 70.3,40.8 72.6,42.2 75.0,43.4 77.4,44.6 79.8,45.7 82.2,46.7 84.5,47.6 86.9,48.4 89.3,49.1 91.7,49.7 94.1,50.1 96.4,50.4 98.8,50.6 101.2,50.7 103.6,50.6 105.9,50.4 108.3,50.1 110.7,49.7 113.1,49.1 115.5,48.4 117.8,47.6 120.2,46.7 122.6,45.7 125.0,44.6 127.4,43.4 129.7,42.2 132.1,40.8 134.5,39.4 136.9,37.9 139.3,36.4 141.6,34.8 144.0,33.2 146.4,31.6 148.8,30.0 151.2,28.4 153.5,26.8 155.9,25.2 158.3,23.6 160.7,22.1 163.1,20.6 165.4,19.2 167.8,17.8 170.2,16.6 172.6,15.4 175.0,14.3 177.3,13.3 179.7,12.4 182.1,11.6 184.5,10.9 186.9,10.3 189.2,9.9 191.6,9.6 194.0,9.4" fill="none" stroke="#3b82f6" stroke-width="1.5"/>
</svg>