<svg xmlns="http://www.w3.org/2000/svg" viewBox="0 0 200 60">
<line x1="6" y1="30.0" x2="194" y2="30.0" stroke="#ccc" stroke-width="0.75"/>
  <path d="M6.0 30.0 L6.7 28.4 L7.5 26.7 L8.2 25.2 L8.9 23.6 L9.7 22.1 L10.4 20.6 L11.2 19.2 L11.9 17.9 L12.6 16.6 L13.4 15.5 L14.1 14.4 L14.8 13.4 L15.6 12.6 L16.3 11.8 L17.1 11.1 L17.8 10.6 L18.5 10.1 L19.3 9.8 L20.0 9.5 L20.7 9.4 L21.5 9.3 L22.2 9.3 L23.0 9.4 L23.7 9.6 L24.4 9.8 L25.2 10.0 L25.9 10.4 L26.6 10.7 L27.4 11.1 L28.1 11.4 L28.9 11.8 L29.6 12.2 L30.3 12.6 L31.1 13.0 L31.8 13.3 L32.5 13.6 L33.3 13.9 L34.0 14.1 L34.8 14.3 L35.5 14.4 L36.2 14.5 L37.0 14.6 L37.7 14.6 L38.4 14.5 L39.2 14.4 L39.9 14.3 L40.7 14.2 L41.4 14.0 L42.1 13.7 L42.9 13.5 L43.6 13.2 L44.3 12.9 L45.1 12.6 L45.8 12.4 L46.5 12.1 L47.3 11.8 L48.0 11.6 L48.8 11.3 L49.5 11.1 L50.2 11.0 L51.0 10.8 L51.7 10.7 L52.4 10.7 L53.2 10.6 L53.9 10.7 L54.7 10.7 L55.4 10.8 L56.1 11.0 L56.9 11.1 L57.6 11.3 L58.3 11.6 L59.1 11.8 L59.8 12.1 L60.6 12.4 L61.3 12.6 L62.0 12.9 L62.8 13.2 L63.5 13.5 L64.2 13.7 L65.0 14.0 L65.7 14.2 L66.5 14.3 L67.2 14.4 L67.9 14.5 L68.7 14.6 L69.4 14.6 L70.1 14.5 L70.9 14.4 L71.6 14.3 L72.4 14.1 L73.1 13.9 L73.8 13.6 L74.6 13.3 L75.3 13.0 L76.0 12.6 L76.8 12.2 L77.5 11.8 L78.3 11.4 L79.0 11.1 L79.7 10.7 L80.5 10.4 L81.2 10.0 L81.9 9.8 L82.7 9.6 L83.4 9.4 L84.1 9.3 L84.9 9.3 L85.6 9.4 L86.4 9.5 L87.1 9.8 L87.8 10.1 L88.6 10.6 L89.3 11.1 L90.0 11.8 L90.8 12.6 L91.5 13.4 L92.3 14.4 L93.0 15.5 L93.7 16.6 L94.5 17.9 L95.2 19.2 L95.9 20.6 L96.7 22.1 L97.4 23.6 L98.2 25.2 L98.9 26.7 L99.6 28.4 L100.4 30.0 L101.1 31.6 L101.8 33.3 L102.6 34.8 L103.3 36.4 L104.1 37.9 L104.8 39.4 L105.5 40.8 L106.3 42.1 L107.0 43.4 L107.7 44.5 L108.5 45.6 L109.2 46.6 L110.0 47.4 L110.7 48.2 L111.4 48.9 L112.2 49.4 L112.9 49.9 L113.6 50.2 L114.4 50.5 L115.1 50.6 L115.9 50.7 L116.6 50.7 L117.3 50.6 L118.1 50.4 L118.8 50.2 L119.5 50.0 L120.3 49.6 L121.0 49.3 L121.7 48.9 L122.5 48.6 L123.2 48.2 L124.0 47.8 L124.7 47.4 L125.4 47.0 L126.2 46.7 L126.9 46.4 L127.6 46.1 L128.4 45.9 L129.1 45.7 L129.9 45.6 L130.6 45.5 L131.3 45.4 L132.1 45.4 L132.8 45.5 L133.5 45.6 L134.3 45.7 L135.0 45.8 L135.8 46.0 L136.5 46.3 L137.2 46.5 L138.0 46.8 L138.7 47.1 L139.4 47.4 L140.2 47.6 L140.9 47.9 L141.7 48.2 L142.4 48.4 L143.1 48.7 L143.9 48.9 L144.6 49.0 L145.3 49.2 L146.1 49.3 L146.8 49.3 L147.6 49.4 L148.3 49.3 L149.0 49.3 L149.8 49.2 L150.5 49.0 L151.2 48.9 L152.0 48.7 L152.7 48.4 L153.5 48.2 L154.2 47.9 L154.9 47.6 L155.7 47.4 L156.4 47.1 L157.1 46.8 L157.9 46.5 L158.6 46.3 L159.3 46.0 L160.1 45.8 L160.8 45.7 L161.6 45.6 L162.3 45.5 L163.0 45.4 L163.8 45.4 L164.5 45.5 L165.2 45.6 L166.0 45.7 L166.7 45.9 L167.5 46.1 L168.2 46.4 L168.9 46.7 L169.7 47.0 L170.4 47.4 L171.1 47.8 L171.9 48.2 L172.6 48.6 L173.4 48.9 L174.1 49.3 L174.8 49.6 L175.6 50.0 L176.3 50.2 L177.0 50.4 L177.8 50.6 L178.5 50.7 L179.3 50.7 L180.0 50.6 L180.7 50.5 L181.5 50.2 L182.2 49.9 L182.9 49.4 L183.7 48.9 L184.4 48.2 L185.2 47.4 L185.9 46.6 L186.6 45.6 L187.4 44.5 L188.1 43.4 L188.8 42.1 L189.6 40.8 L190.3 39.4 L191.1 37.9 L191.8 36.4 L192.5 34.8 L193.3 33.3 L194.0 31.6" fill="none" stroke="#3b82f6" stroke-width="1.5" stroke-linecap="round" stroke-linejoin="round"/>
</svg>