<svg xmlns="http://www.w3.org/2000/svg" width="200" height="60" viewBox="0 0 200 60">
  <line x1="6" y1="30.0" x2="194" y2="30.0" stroke="#999" stroke-width="0.5"/>
  <polyline points="6.0,30.0 8.4,24.8 10.8,20.0 13.1,15.9 15.5,12.7 17.9,10.6 20.3,9.5 22.7,9.3 25.0,9.9 27.4,11.0 29.8,12.2 32.2,13.3 34.6,14.1 36.9,14.5 39.3,14.4 41.7,13.9 44.1,13.1 46.5,12.2 48.8,11.4 51.2,10.8 53.6,10.6 56.0,10.8 58.4,11.4 60.7,12.2 63.1,13.1 65.5,13.9 67.9,14.4 70.3,14.5 72.6,14.1 75.0,13.3 77.4,12.2 79.8,11.0 82.2,9.9 84.5,9.3 86.9,9.5 89.3,10.6 91.7,12.7 94.1,15.9 96.4,20.0 98.8,24.8 101.2,30.0 103.6,35.2 105.9,40.0 108.3,44.1 110.7,47.3 113.1,49.4 115.5,50.5 117.8,50.7 120.2,50.1 122.6,49.0 125.0,47.8 127.4,46.7 129.7,45.9 132.1,45.5 134.5,45.6 136.9,46.1 139.3,46.9 141.6,47.8 144.0,48.6 146.4,49.2 148.8,49.4 151.2,49.2 153.5,48.6 155.9,47.8 158.3,46.9 160.7,46.1 163.1,45.6 165.4,45.5 167.8,45.9 170.2,46.7 172.6,47.8 175.0,49.0 177.3,50.1 179.7,50.7 182.1,50.5 184.5,49.4 186.9,47.3 189.2,44.1 191.6,40.0 194.0,35.2" fill="none" stroke="#3b82f6" stroke-width="1.5"/>
</svg>