<svg xmlns="http://www.w3.org/2000/svg" width="200" height="60" viewBox="0 0 200 60">
  <line x1="6" y1="28.8" x2="194" y2="28.8" stroke="#999" stroke-width="1"/>
  <polyline points="6.0,9.3 8.4,10.2 10.8,11.1 13.1,12.0 15.5,13.0 17.9,13.9 20.3,14.8 22.7,15.7 25.0,16.6 27.4,17.5 29.8,18.4 32.2,19.4 34.6,20.3 36.9,21.2 39.3,22.5 41.7,23.9 44.1,25.4 46.5,26.8 48.8,28.3 51.2,29.8 53.6,31.2 56.0,32.7 58.4,34.1 60.7,35.6 63.1,37.1 65.5,38.5 67.9,40.0 70.3,41.2 72.6,41.9 75.0,42.7 77.4,43.4 79.8,44.1 82.2,44.8 84.5,45.6 86.9,46.3 89.3,47.0 91.7,47.8 94.1,48.5 96.4,49.2 98.8,50.0 101.2,50.7 103.6,49.4 105.9,48.1 108.3,46.9 110.7,45.6 113.1,44.3 115.5,43.0 117.8,41.7 120.2,40.5 122.6,39.2 125.0,37.9 127.4,36.6 129.7,35.4 132.1,34.1 134.5,32.7 136.9,31.2 139.3,29.8 141.6,28.3 144.0,26.8 146.4,25.4 148.8,23.9 151.2,22.5 153.5,21.0 155.9,19.5 158.3,18.1 160.7,16.6 163.1,15.2 165.4,14.1 167.8,13.7 170.2,13.3 172.6,13.0 175.0,12.6 177.3,12.2 179.7,11.9 182.1,11.5 184.5,11.1 186.9,10.8 189.2,10.4 191.6,10.0 194.0,9.7" fill="none" stroke="#3b82f6" stroke-width="3"/>
</svg>