<svg xmlns="http://www.w3.org/2000/svg" viewBox="0 0 200 60">
<line x1="6" y1="28.8" x2="194" y2="28.8" stroke="#ccc" stroke-width="0.75"/>
  <path d="M6.0 9.3 L6.7 9.6 L7.5 9.9 L8.2 10.2 L8.9 10.5 L9.7 10.7 L10.4 11.0 L11.2 11.3 L11.9 11.6 L12.6 11.9 L13.4 12.2 L14.1 12.4 L14.8 12.7 L15.6 13.0 L16.3 13.3 L17.1 13.6 L17.8 13.9 L18.5 14.2 L19.3 14.4 L20.0 14.7 L20.7 15.0 L21.5 15.3 L22.2 15.6 L23.0 15.9 L23.7 16.2 L24.4 16.4 L25.2 16.7 L25.9 17.0 L26.6 17.3 L27.4 17.6 L28.1 17.9 L28.9 18.2 L29.6 18.4 L30.3 18.7 L31.1 19.0 L31.8 19.3 L32.5 19.6 L33.3 19.9 L34.0 20.1 L34.8 20.4 L35.5 20.7 L36.2 21.0 L37.0 21.3 L37.7 21.6 L38.4 22.1 L39.2 22.5 L39.9 23.0 L40.7 23.5 L41.4 23.9 L42.1 24.4 L42.9 24.8 L43.6 25.3 L44.3 25.7 L45.1 26.2 L45.8 26.7 L46.5 27.1 L47.3 27.6 L48.0 28.0 L48.8 28.5 L49.5 28.9 L50.2 29.4 L51.0 29.8 L51.7 30.3 L52.4 30.8 L53.2 31.2 L53.9 31.7 L54.7 32.1 L55.4 32.6 L56.1 33.0 L56.9 33.5 L57.6 34.0 L58.3 34.4 L59.1 34.9 L59.8 35.3 L60.6 35.8 L61.3 36.2 L62.0 36.7 L62.8 37.2 L63.5 37.6 L64.2 38.1 L65.0 38.5 L65.7 39.0 L66.5 39.4 L67.2 39.9 L67.9 40.3 L68.7 40.8 L69.4 41.1 L70.1 41.3 L70.9 41.6 L71.6 41.8 L72.4 42.0 L73.1 42.2 L73.8 42.5 L74.6 42.7 L75.3 42.9 L76.0 43.2 L76.8 43.4 L77.5 43.6 L78.3 43.8 L79.0 44.1 L79.7 44.3 L80.5 44.5 L81.2 44.8 L81.9 45.0 L82.7 45.2 L83.4 45.4 L84.1 45.7 L84.9 45.9 L85.6 46.1 L86.4 46.4 L87.1 46.6 L87.8 46.8 L88.6 47.0 L89.3 47.3 L90.0 47.5 L90.8 47.7 L91.5 48.0 L92.3 48.2 L93.0 48.4 L93.7 48.6 L94.5 48.9 L95.2 49.1 L95.9 49.3 L96.7 49.5 L97.4 49.8 L98.2 50.0 L98.9 50.2 L99.6 50.5 L100.4 50.7 L101.1 50.3 L101.8 49.9 L102.6 49.5 L103.3 49.1 L104.1 48.7 L104.8 48.3 L105.5 47.9 L106.3 47.5 L107.0 47.1 L107.7 46.7 L108.5 46.3 L109.2 45.9 L110.0 45.5 L110.7 45.1 L111.4 44.7 L112.2 44.3 L112.9 43.9 L113.6 43.5 L114.4 43.1 L115.1 42.7 L115.9 42.3 L116.6 41.9 L117.3 41.5 L118.1 41.1 L118.8 40.7 L119.5 40.3 L120.3 39.9 L121.0 39.5 L121.7 39.1 L122.5 38.7 L123.2 38.3 L124.0 37.9 L124.7 37.5 L125.4 37.1 L126.2 36.7 L126.9 36.3 L127.6 35.9 L128.4 35.5 L129.1 35.1 L129.9 34.7 L130.6 34.3 L131.3 33.9 L132.1 33.5 L132.8 33.0 L133.5 32.6 L134.3 32.1 L135.0 31.7 L135.8 31.2 L136.5 30.8 L137.2 30.3 L138.0 29.8 L138.7 29.4 L139.4 28.9 L140.2 28.5 L140.9 28.0 L141.7 27.6 L142.4 27.1 L143.1 26.7 L143.9 26.2 L144.6 25.7 L145.3 25.3 L146.1 24.8 L146.8 24.4 L147.6 23.9 L148.3 23.5 L149.0 23.0 L149.8 22.5 L150.5 22.1 L151.2 21.6 L152.0 21.2 L152.7 20.7 L153.5 20.3 L154.2 19.8 L154.9 19.4 L155.7 18.9 L156.4 18.4 L157.1 18.0 L157.9 17.5 L158.6 17.1 L159.3 16.6 L160.1 16.2 L160.8 15.7 L161.6 15.2 L162.3 14.8 L163.0 14.3 L163.8 14.1 L164.5 14.0 L165.2 13.9 L166.0 13.8 L166.7 13.6 L167.5 13.5 L168.2 13.4 L168.9 13.3 L169.7 13.2 L170.4 13.1 L171.1 13.0 L171.9 12.8 L172.6 12.7 L173.4 12.6 L174.1 12.5 L174.8 12.4 L175.6 12.3 L176.3 12.2 L177.0 12.0 L177.8 11.9 L178.5 11.8 L179.3 11.7 L180.0 11.6 L180.7 11.5 L181.5 11.4 L182.2 11.3 L182.9 11.1 L183.7 11.0 L184.4 10.9 L185.2 10.8 L185.9 10.7 L186.6 10.6 L187.4 10.5 L188.1 10.3 L188.8 10.2 L189.6 10.1 L190.3 10.0 L191.1 9.9 L191.8 9.8 L192.5 9.7 L193.3 9.5 L194.0 9.4" fill="none" stroke="#3b82f6" stroke-width="1.5" stroke-linecap="round" stroke-linejoin="round"/>
</svg>