<svg xmlns="http://www.w3.org/2000/svg" viewBox="0 0 200 60">
<line x1="6" y1="30.1" x2="194" y2="30.1" stroke="#ccc" stroke-width="0.75"/>
  <path d="M6.0 11.6 L6.7 42.0 L7.5 31.8 L8.2 46.1 L8.9 18.4 L9.7 19.8 L10.4 33.4 L11.2 47.8 L11.9 34.2 L12.6 20.9 L13.4 42.1 L14.1 19.0 L14.8 21.7 L15.6 42.8 L16.3 35.9 L17.1 38.0 L17.8 30.6 L18.5 39.8 L19.3 34.8 L20.0 39.2 L20.7 22.0 L21.5 41.3 L22.2 39.3 L23.0 28.3 L23.7 30.7 L24.4 47.3 L25.2 34.4 L25.9 24.9 L26.6 14.0 L27.4 24.3 L28.1 34.1 L28.9 10.3 L29.6 32.6 L30.3 21.2 L31.1 44.2 L31.8 32.7 L32.5 34.9 L33.3 26.0 L34.0 31.1 L34.8 9.7 L35.5 29.1 L36.2 44.8 L37.0 40.6 L37.7 35.3 L38.4 40.4 L39.2 11.4 L39.9 27.4 L40.7 15.5 L41.4 41.8 L42.1 47.4 L42.9 42.8 L43.6 13.4 L44.3 27.3 L45.1 30.9 L45.8 43.5 L46.5 33.5 L47.3 11.6 L48.0 11.0 L48.8 50.2 L49.5 10.6 L50.2 37.2 L51.0 29.0 L51.7 24.6 L52.4 32.8 L53.2 29.0 L53.9 36.6 L54.7 19.2 L55.4 39.1 L56.1 49.7 L56.9 41.0 L57.6 33.2 L58.3 10.9 L59.1 18.7 L59.8 12.1 L60.6 42.4 L61.3 21.5 L62.0 36.5 L62.8 12.7 L63.5 13.9 L64.2 27.8 L65.0 13.2 L65.7 28.0 L66.5 21.9 L67.2 17.2 L67.9 40.4 L68.7 19.2 L69.4 49.1 L70.1 40.6 L70.9 34.9 L71.6 14.9 L72.4 22.4 L73.1 13.9 L73.8 38.9 L74.6 18.3 L75.3 24.7 L76.0 24.3 L76.8 28.3 L77.5 46.5 L78.3 11.7 L79.0 50.7 L79.7 32.0 L80.5 36.5 L81.2 15.3 L81.9 49.3 L82.7 26.4 L83.4 47.4 L84.1 36.6 L84.9 15.8 L85.6 9.9 L86.4 31.5 L87.1 10.3 L87.8 35.8 L88.6 25.0 L89.3 12.9 L90.0 24.3 L90.8 29.8 L91.5 37.5 L92.3 45.5 L93.0 39.0 L93.7 19.2 L94.5 13.8 L95.2 33.3 L95.9 35.9 L96.7 33.3 L97.4 48.2 L98.2 40.1 L98.9 39.9 L99.6 35.9 L100.4 28.0 L101.1 36.8 L101.8 21.9 L102.6 17.4 L103.3 31.9 L104.1 42.3 L104.8 13.5 L105.5 32.8 L106.3 25.6 L107.0 16.4 L107.7 36.5 L108.5 19.3 L109.2 29.9 L110.0 47.1 L110.7 42.1 L111.4 25.6 L112.2 29.8 L112.9 11.6 L113.6 14.0 L114.4 19.2 L115.1 26.6 L115.9 37.0 L116.6 21.8 L117.3 19.9 L118.1 15.1 L118.8 15.4 L119.5 48.0 L120.3 43.6 L121.0 37.7 L121.7 18.0 L122.5 12.7 L123.2 26.0 L124.0 12.5 L124.7 17.3 L125.4 13.9 L126.2 45.3 L126.9 27.1 L127.6 24.8 L128.4 47.6 L129.1 50.0 L129.9 17.9 L130.6 21.9 L131.3 14.8 L132.1 32.4 L132.8 47.6 L133.5 48.7 L134.3 29.9 L135.0 49.0 L135.8 44.6 L136.5 11.7 L137.2 24.2 L138.0 37.7 L138.7 14.4 L139.4 14.0 L140.2 12.9 L140.9 11.9 L141.7 20.3 L142.4 23.6 L143.1 16.0 L143.9 26.5 L144.6 34.6 L145.3 15.3 L146.1 34.9 L146.8 37.0 L147.6 22.4 L148.3 39.0 L149.0 34.3 L149.8 27.5 L150.5 17.7 L151.2 16.0 L152.0 45.3 L152.7 49.2 L153.5 29.0 L154.2 16.3 L154.9 10.9 L155.7 21.9 L156.4 16.7 L157.1 24.3 L157.9 44.5 L158.6 37.4 L159.3 24.4 L160.1 27.9 L160.8 48.5 L161.6 37.8 L162.3 10.2 L163.0 25.7 L163.8 31.7 L164.5 18.1 L165.2 41.4 L166.0 33.1 L166.7 32.7 L167.5 9.6 L168.2 43.5 L168.9 25.1 L169.7 12.3 L170.4 38.8 L171.1 12.7 L171.9 45.8 L172.6 14.6 L173.4 11.9 L174.1 25.0 L174.8 45.2 L175.6 22.2 L176.3 49.3 L177.0 12.2 L177.8 15.0 L178.5 9.3 L179.3 16.2 L180.0 24.2 L180.7 39.8 L181.5 20.1 L182.2 50.3 L182.9 25.3 L183.7 14.2 L184.4 28.1 L185.2 27.2 L185.9 37.3 L186.6 42.1 L187.4 24.6 L188.1 48.7 L188.8 45.9 L189.6 9.4 L190.3 29.4 L191.1 30.9 L191.8 14.5 L192.5 33.3 L193.3 48.6 L194.0 20.6" fill="none" stroke="#3b82f6" stroke-width="1.5" stroke-linecap="round" stroke-linejoin="round"/>
</svg>