<svg xmlns="http://www.w3.org/2000/svg" width="200" height="60" viewBox="0 0 200 60">
  <line x1="6" y1="30.4" x2="194" y2="30.4" stroke="#999" stroke-width="1"/>
  <polyline points="6.0,28.5 8.4,35.9 10.8,23.6 13.1,27.9 15.5,15.0 17.9,47.8 20.3,48.7 22.7,26.9 25.0,20.6 27.4,12.7 29.8,9.3 32.2,15.2 34.6,22.4 36.9,38.4 39.3,10.1 41.7,47.8 44.1,43.8 46.5,16.7 48.8,16.0 51.2,17.5 53.6,39.8 56.0,28.0 58.4,18.4 60.7,37.4 63.1,29.4 65.5,36.5 67.9,34.1 70.3,10.2 72.6,42.3 75.0,12.1 77.4,45.9 79.8,10.3 82.2,43.3 84.5,46.6 86.9,39.2 89.3,34.7 91.7,34.9 94.1,42.9 96.4,21.5 98.8,27.3 101.2,47.5 103.6,50.7 105.9,31.0 108.3,16.0 110.7,9.6 113.1,15.2 115.5,27.3 117.8,9.4 120.2,22.4 122.6,17.3 125.0,44.9 127.4,41.9 129.7,42.1 132.1,37.2 134.5,37.7 136.9,49.8 139.3,23.1 141.6,9.3 144.0,44.4 146.4,14.6 148.8,42.4 151.2,47.6 153.5,36.5 155.9,34.3 158.3,13.0 160.7,47.5 163.1,33.2 165.4,49.9 167.8,28.5 170.2,48.6 172.6,39.3 175.0,32.8 177.3,41.1 179.7,42.4 182.1,41.9 184.5,25.0 186.9,24.2 189.2,35.7 191.6,14.2 194.0,35.7" fill="none" stroke="#3b82f6" stroke-width="3"/>
</svg>