<svg xmlns="http://www.w3.org/2000/svg" width="200" height="60" viewBox="0 0 200 60">
  <line x1="6" y1="29.3" x2="194" y2="29.3" stroke="#999" stroke-width="0.5"/>
  <polyline points="6.0,9.5 8.4,45.7 10.8,46.0 13.1,50.7 15.5,45.4 17.9,16.7 20.3,9.5 22.7,31.3 25.0,49.9 27.4,21.4 29.8,43.0 32.2,48.5 34.6,39.3 36.9,34.6 39.3,42.7 41.7,27.5 44.1,10.6 46.5,12.0 48.8,28.8 51.2,27.9 53.6,35.2 56.0,49.4 58.4,40.1 60.7,33.0 63.1,48.7 65.5,15.8 67.9,39.5 70.3,48.7 72.6,43.5 75.0,47.0 77.4,17.8 79.8,10.5 82.2,9.5 84.5,16.4 86.9,50.7 89.3,30.6 91.7,33.2 94.1,22.1 96.4,32.5 98.8,48.8 101.2,19.4 103.6,10.4 105.9,45.5 108.3,27.5 110.7,38.4 113.1,32.1 115.5,25.0 117.8,15.7 120.2,46.1 122.6,46.7 125.0,41.8 127.4,24.2 129.7,37.7 132.1,38.8 134.5,14.5 136.9,13.7 139.3,15.9 141.6,33.2 144.0,19.0 146.4,42.7 148.8,48.6 151.2,22.5 153.5,31.3 155.9,35.6 158.3,13.3 160.7,42.3 163.1,36.0 165.4,19.5 167.8,49.9 170.2,33.6 172.6,17.0 175.0,30.2 177.3,40.5 179.7,21.6 182.1,34.3 184.5,41.6 186.9,23.2 189.2,9.3 191.6,20.8 194.0,19.5" fill="none" stroke="#3b82f6" stroke-width="1.5"/>
</svg>