<svg xmlns="http://www.w3.org/2000/svg" width="200" height="60" viewBox="0 0 200 60">
  <line x1="6" y1="29.4" x2="194" y2="29.4" stroke="#999" stroke-width="1"/>
  <polyline points="6.0,38.9 8.4,45.6 10.8,38.4 13.1,12.6 15.5,17.9 17.9,29.7 20.3,29.5 22.7,11.5 25.0,39.4 27.4,43.9 29.8,45.6 32.2,19.5 34.6,26.6 36.9,23.7 39.3,45.6 41.7,48.0 44.1,36.6 46.5,12.3 48.8,22.4 51.2,28.5 53.6,45.0 56.0,18.6 58.4,24.6 60.7,43.3 63.1,27.9 65.5,46.2 67.9,14.6 70.3,30.2 72.6,50.6 75.0,35.8 77.4,13.2 79.8,38.9 82.2,27.4 84.5,50.7 86.9,15.8 89.3,13.0 91.7,50.5 94.1,40.7 96.4,14.5 98.8,25.1 101.2,17.8 103.6,24.5 105.9,24.7 108.3,42.0 110.7,13.2 113.1,41.8 115.5,14.2 117.8,16.1 120.2,37.8 122.6,39.2 125.0,12.6 127.4,32.8 129.7,19.2 132.1,42.6 134.5,48.5 136.9,48.3 139.3,30.1 141.6,45.1 144.0,35.7 146.4,10.5 148.8,24.8 151.2,45.9 153.5,16.6 155.9,43.0 158.3,38.7 160.7,19.7 163.1,17.5 165.4,32.3 167.8,25.9 170.2,22.8 172.6,24.8 175.0,28.4 177.3,26.5 179.7,35.9 182.1,41.6 184.5,11.0 186.9,9.3 189.2,40.9 191.6,42.7 194.0,48.6" fill="none" stroke="#3b82f6" stroke-width="1.5"/>
</svg>