<svg xmlns="http://www.w3.org/2000/svg" width="200" height="60" viewBox="0 0 200 60">
  <line x1="6" y1="50.7" x2="194" y2="50.7" stroke="#999" stroke-width="1"/>
  <polyline points="6.0,9.3 8.4,9.3 10.8,9.3 13.1,9.3 15.5,9.3 17.9,50.7 20.3,50.7 22.7,50.7 25.0,50.7 27.4,50.7 29.8,50.7 32.2,50.7 34.6,50.7 36.9,50.7 39.3,50.7 41.7,50.7 44.1,50.7 46.5,50.7 48.8,50.7 51.2,50.7 53.6,50.7 56.0,50.7 58.4,50.7 60.7,50.7 63.1,50.7 65.5,50.7 67.9,50.7 70.3,50.7 72.6,50.7 75.0,50.7 77.4,50.7 79.8,50.7 82.2,50.7 84.5,50.7 86.9,50.7 89.3,50.7 91.7,50.7 94.1,50.7 96.4,50.7 98.8,50.7 101.2,50.7 103.6,50.7 105.9,50.7 108.3,50.7 110.7,50.7 113.1,50.7 115.5,50.7 117.8,50.7 120.2,50.7 122.6,50.7 125.0,50.7 127.4,50.7 129.7,50.7 132.1,50.7 134.5,50.7 136.9,50.7 139.3,50.7 141.6,50.7 144.0,50.7 146.4,50.7 148.8,50.7 151.2,50.7 153.5,50.7 155.9,50.7 158.3,50.7 160.7,50.7 163.1,50.7 165.4,50.7 167.8,50.7 170.2,50.7 172.6,50.7 175.0,50.7 177.3,50.7 179.7,50.7 182.1,50.7 184.5,50.7 186.9,50.7 189.2,50.7 191.6,50.7 194.0,50.7" fill="none" stroke="#3b82f6" stroke-width="3"/>
</svg>