<svg xmlns="http://www.w3.org/2000/svg" viewBox="0 0 200 60">
<line x1="6" y1="50.7" x2="194" y2="50.7" stroke="#ccc" stroke-width="0.75"/>
  <path d="M6.0 9.3 L6.7 9.3 L7.5 9.3 L8.2 9.3 L8.9 9.3 L9.7 9.3 L10.4 9.3 L11.2 9.3 L11.9 9.3 L12.6 9.3 L13.4 9.3 L14.1 9.3 L14.8 9.3 L15.6 9.3 L16.3 9.3 L17.1 9.3 L17.8 50.7 L18.5 50.7 L19.3 50.7 L20.0 50.7 L20.7 50.7 L21.5 50.7 L22.2 50.7 L23.0 50.7 L23.7 50.7 L24.4 50.7 L25.2 50.7 L25.9 50.7 L26.6 50.7 L27.4 50.7 L28.1 50.7 L28.9 50.7 L29.6 50.7 L30.3 50.7 L31.1 50.7 L31.8 50.7 L32.5 50.7 L33.3 50.7 L34.0 50.7 L34.8 50.7 L35.5 50.7 L36.2 50.7 L37.0 50.7 L37.7 50.7 L38.4 50.7 L39.2 50.7 L39.9 50.7 L40.7 50.7 L41.4 50.7 L42.1 50.7 L42.9 50.7 L43.6 50.7 L44.3 50.7 L45.1 50.7 L45.8 50.7 L46.5 50.7 L47.3 50.7 L48.0 50.7 L48.8 50.7 L49.5 50.7 L50.2 50.7 L51.0 50.7 L51.7 50.7 L52.4 50.7 L53.2 50.7 L53.9 50.7 L54.7 50.7 L55.4 50.7 L56.1 50.7 L56.9 50.7 L57.6 50.7 L58.3 50.7 L59.1 50.7 L59.8 50.7 L60.6 50.7 L61.3 50.7 L62.0 50.7 L62.8 50.7 L63.5 50.7 L64.2 50.7 L65.0 50.7 L65.7 50.7 L66.5 50.7 L67.2 50.7 L67.9 50.7 L68.7 50.7 L69.4 50.7 L70.1 50.7 L70.9 50.7 L71.6 50.7 L72.4 50.7 L73.1 50.7 L73.8 50.7 L74.6 50.7 L75.3 50.7 L76.0 50.7 L76.8 50.7 L77.5 50.7 L78.3 50.7 L79.0 50.7 L79.7 50.7 L80.5 50.7 L81.2 50.7 L81.9 50.7 L82.7 50.7 L83.4 50.7 L84.1 50.7 L84.9 50.7 L85.6 50.7 L86.4 50.7 L87.1 50.7 L87.8 50.7 L88.6 50.7 L89.3 50.7 L90.0 50.7 L90.8 50.7 L91.5 50.7 L92.3 50.7 L93.0 50.7 L93.7 50.7 L94.5 50.7 L95.2 50.7 L95.9 50.7 L96.7 50.7 L97.4 50.7 L98.2 50.7 L98.9 50.7 L99.6 50.7 L100.4 50.7 L101.1 50.7 L101.8 50.7 L102.6 50.7 L103.3 50.7 L104.1 50.7 L104.8 50.7 L105.5 50.7 L106.3 50.7 L107.0 50.7 L107.7 50.7 L108.5 50.7 L109.2 50.7 L110.0 50.7 L110.7 50.7 L111.4 50.7 L112.2 50.7 L112.9 50.7 L113.6 50.7 L114.4 50.7 L115.1 50.7 L115.9 50.7 L116.6 50.7 L117.3 50.7 L118.1 50.7 L118.8 50.7 L119.5 50.7 L120.3 50.7 L121.0 50.7 L121.7 50.7 L122.5 50.7 L123.2 50.7 L124.0 50.7 L124.7 50.7 L125.4 50.7 L126.2 50.7 L126.9 50.7 L127.6 50.7 L128.4 50.7 L129.1 50.7 L129.9 50.7 L130.6 50.7 L131.3 50.7 L132.1 50.7 L132.8 50.7 L133.5 50.7 L134.3 50.7 L135.0 50.7 L135.8 50.7 L136.5 50.7 L137.2 50.7 L138.0 50.7 L138.7 50.7 L139.4 50.7 L140.2 50.7 L140.9 50.7 L141.7 50.7 L142.4 50.7 L143.1 50.7 L143.9 50.7 L144.6 50.7 L145.3 50.7 L146.1 50.7 L146.8 50.7 L147.6 50.7 L148.3 50.7 L149.0 50.7 L149.8 50.7 L150.5 50.7 L151.2 50.7 L152.0 50.7 L152.7 50.7 L153.5 50.7 L154.2 50.7 L154.9 50.7 L155.7 50.7 L156.4 50.7 L157.1 50.7 L157.9 50.7 L158.6 50.7 L159.3 50.7 L160.1 50.7 L160.8 50.7 L161.6 50.7 L162.3 50.7 L163.0 50.7 L163.8 50.7 L164.5 50.7 L165.2 50.7 L166.0 50.7 L166.7 50.7 L167.5 50.7 L168.2 50.7 L168.9 50.7 L169.7 50.7 L170.4 50.7 L171.1 50.7 L171.9 50.7 L172.6 50.7 L173.4 50.7 L174.1 50.7 L174.8 50.7 L175.6 50.7 L176.3 50.7 L177.0 50.7 L177.8 50.7 L178.5 50.7 L179.3 50.7 L180.0 50.7 L180.7 50.7 L181.5 50.7 L182.2 50.7 L182.9 50.7 L183.7 50.7 L184.4 50.7 L185.2 50.7 L185.9 50.7 L186.6 50.7 L187.4 50.7 L188.1 50.7 L188.8 50.7 L189.6 50.7 L190.3 50.7 L191.1 50.7 L191.8 50.7 L192.5 50.7 L193.3 50.7 L194.0 50.7" fill="none" stroke="#3b82f6" stroke-width="1.5" stroke-linecap="round" stroke-linejoin="round"/>
</svg>