<svg xmlns="http://www.w3.org/2000/svg" viewBox="0 0 200 60">
<line x1="6" y1="30.1" x2="194" y2="30.1" stroke="#ccc" stroke-width="0.75"/>
  <path d="M6.0 9.3 L6.7 9.5 L7.5 9.6 L8.2 9.8 L8.9 10.0 L9.7 10.1 L10.4 10.3 L11.2 10.4 L11.9 10.6 L12.6 10.8 L13.4 10.9 L14.1 11.1 L14.8 11.3 L15.6 11.4 L16.3 11.6 L17.1 11.7 L17.8 11.9 L18.5 12.1 L19.3 12.2 L20.0 12.4 L20.7 12.6 L21.5 12.7 L22.2 12.9 L23.0 13.0 L23.7 13.2 L24.4 13.4 L25.2 13.5 L25.9 13.7 L26.6 13.9 L27.4 14.0 L28.1 14.2 L28.9 14.3 L29.6 14.5 L30.3 14.7 L31.1 14.8 L31.8 15.0 L32.5 15.2 L33.3 15.3 L34.0 15.5 L34.8 15.6 L35.5 15.8 L36.2 16.0 L37.0 16.1 L37.7 16.3 L38.4 16.5 L39.2 16.6 L39.9 16.8 L40.7 16.9 L41.4 17.1 L42.1 17.3 L42.9 17.4 L43.6 17.6 L44.3 17.7 L45.1 17.9 L45.8 18.1 L46.5 18.2 L47.3 18.4 L48.0 18.6 L48.8 18.7 L49.5 18.9 L50.2 19.0 L51.0 19.2 L51.7 19.4 L52.4 19.5 L53.2 19.7 L53.9 19.9 L54.7 20.0 L55.4 20.2 L56.1 20.3 L56.9 20.5 L57.6 20.7 L58.3 20.8 L59.1 21.0 L59.8 21.2 L60.6 21.3 L61.3 21.5 L62.0 21.6 L62.8 21.8 L63.5 22.0 L64.2 22.1 L65.0 22.3 L65.7 22.5 L66.5 22.6 L67.2 22.8 L67.9 22.9 L68.7 23.1 L69.4 23.3 L70.1 23.4 L70.9 23.6 L71.6 23.8 L72.4 23.9 L73.1 24.1 L73.8 24.2 L74.6 24.4 L75.3 24.6 L76.0 24.7 L76.8 24.9 L77.5 25.1 L78.3 25.2 L79.0 25.4 L79.7 25.5 L80.5 25.7 L81.2 25.9 L81.9 26.0 L82.7 26.2 L83.4 26.3 L84.1 26.5 L84.9 26.7 L85.6 26.8 L86.4 27.0 L87.1 27.2 L87.8 27.3 L88.6 27.5 L89.3 27.6 L90.0 27.8 L90.8 28.0 L91.5 28.1 L92.3 28.3 L93.0 28.5 L93.7 28.6 L94.5 28.8 L95.2 28.9 L95.9 29.1 L96.7 29.3 L97.4 29.4 L98.2 29.6 L98.9 29.8 L99.6 29.9 L100.4 30.1 L101.1 30.2 L101.8 30.4 L102.6 30.6 L103.3 30.7 L104.1 30.9 L104.8 31.1 L105.5 31.2 L106.3 31.4 L107.0 31.5 L107.7 31.7 L108.5 31.9 L109.2 32.0 L110.0 32.2 L110.7 32.4 L111.4 32.5 L112.2 32.7 L112.9 32.8 L113.6 33.0 L114.4 33.2 L115.1 33.3 L115.9 33.5 L116.6 33.7 L117.3 33.8 L118.1 34.0 L118.8 34.1 L119.5 34.3 L120.3 34.5 L121.0 34.6 L121.7 34.8 L122.5 34.9 L123.2 35.1 L124.0 35.3 L124.7 35.4 L125.4 35.6 L126.2 35.8 L126.9 35.9 L127.6 36.1 L128.4 36.2 L129.1 36.4 L129.9 36.6 L130.6 36.7 L131.3 36.9 L132.1 37.1 L132.8 37.2 L133.5 37.4 L134.3 37.5 L135.0 37.7 L135.8 37.9 L136.5 38.0 L137.2 38.2 L138.0 38.4 L138.7 38.5 L139.4 38.7 L140.2 38.8 L140.9 39.0 L141.7 39.2 L142.4 39.3 L143.1 39.5 L143.9 39.7 L144.6 39.8 L145.3 40.0 L146.1 40.1 L146.8 40.3 L147.6 40.5 L148.3 40.6 L149.0 40.8 L149.8 41.0 L150.5 41.1 L151.2 41.3 L152.0 41.4 L152.7 41.6 L153.5 41.8 L154.2 41.9 L154.9 42.1 L155.7 42.3 L156.4 42.4 L157.1 42.6 L157.9 42.7 L158.6 42.9 L159.3 43.1 L160.1 43.2 L160.8 43.4 L161.6 43.5 L162.3 43.7 L163.0 43.9 L163.8 44.0 L164.5 44.2 L165.2 44.4 L166.0 44.5 L166.7 44.7 L167.5 44.8 L168.2 45.0 L168.9 45.2 L169.7 45.3 L170.4 45.5 L171.1 45.7 L171.9 45.8 L172.6 46.0 L173.4 46.1 L174.1 46.3 L174.8 46.5 L175.6 46.6 L176.3 46.8 L177.0 47.0 L177.8 47.1 L178.5 47.3 L179.3 47.4 L180.0 47.6 L180.7 47.8 L181.5 47.9 L182.2 48.1 L182.9 48.3 L183.7 48.4 L184.4 48.6 L185.2 48.7 L185.9 48.9 L186.6 49.1 L187.4 49.2 L188.1 49.4 L188.8 49.6 L189.6 49.7 L190.3 49.9 L191.1 50.0 L191.8 50.2 L192.5 50.4 L193.3 50.5 L194.0 50.7" fill="none" stroke="#3b82f6" stroke-width="1.5" stroke-linecap="round" stroke-linejoin="round"/>
</svg>