<svg xmlns="http://www.w3.org/2000/svg" width="200" height="60" viewBox="0 0 200 60">
  <line x1="6" y1="30.3" x2="194" y2="30.3" stroke="#999" stroke-width="1"/>
  <polyline points="6.0,9.3 8.4,9.8 10.8,10.4 13.1,10.9 15.5,11.4 17.9,11.9 20.3,12.5 22.7,13.0 25.0,13.5 27.4,14.0 29.8,14.5 32.2,15.1 34.6,15.6 36.9,16.1 39.3,16.6 41.7,17.2 44.1,17.7 46.5,18.2 48.8,18.7 51.2,19.3 53.6,19.8 56.0,20.3 58.4,20.8 60.7,21.4 63.1,21.9 65.5,22.4 67.9,22.9 70.3,23.5 72.6,24.0 75.0,24.5 77.4,25.0 79.8,25.5 82.2,26.1 84.5,26.6 86.9,27.1 89.3,27.6 91.7,28.2 94.1,28.7 96.4,29.2 98.8,29.7 101.2,30.3 103.6,30.8 105.9,31.3 108.3,31.8 110.7,32.4 113.1,32.9 115.5,33.4 117.8,33.9 120.2,34.5 122.6,35.0 125.0,35.5 127.4,36.0 129.7,36.5 132.1,37.1 134.5,37.6 136.9,38.1 139.3,38.6 141.6,39.2 144.0,39.7 146.4,40.2 148.8,40.7 151.2,41.3 153.5,41.8 155.9,42.3 158.3,42.8 160.7,43.4 163.1,43.9 165.4,44.4 167.8,44.9 170.2,45.5 172.6,46.0 175.0,46.5 177.3,47.0 179.7,47.5 182.1,48.1 184.5,48.6 186.9,49.1 189.2,49.6 191.6,50.2 194.0,50.7" fill="none" stroke="#3b82f6" stroke-width="3"/>
</svg>