<svg xmlns="http://www.w3.org/2000/svg" width="200" height="60" viewBox="0 0 200 60">
  <line x1="6" y1="30.0" x2="194" y2="30.0" stroke="#999" stroke-width="0.5"/>
  <polyline points="6.0,30.0 8.4,28.4 10.8,26.8 13.1,25.2 15.5,23.6 17.9,22.1 20.3,20.6 22.7,19.2 25.0,17.8 27.4,16.6 29.8,15.4 32.2,14.3 34.6,13.3 36.9,12.4 39.3,11.6 41.7,10.9 44.1,10.3 46.5,9.9 48.8,9.6 51.2,9.4 53.6,9.3 56.0,9.4 58.4,9.6 60.7,9.9 63.1,10.3 65.5,10.9 67.9,11.6 70.3,12.4 72.6,13.3 75.0,14.3 77.4,15.4 79.8,16.6 82.2,17.8 84.5,19.2 86.9,20.6 89.3,22.1 91.7,23.6 94.1,25.2 96.4,26.8 98.8,28.4 101.2,30.0 103.6,31.6 105.9,33.2 108.3,34.8 110.7,36.4 113.1,37.9 115.5,39.4 117.8,40.8 120.2,42.2 122.6,43.4 125.0,44.6 127.4,45.7 129.7,46.7 132.1,47.6 134.5,48.4 136.9,49.1 139.3,49.7 141.6,50.1 144.0,50.4 146.4,50.6 148.8,50.7 151.2,50.6 153.5,50.4 155.9,50.1 158.3,49.7 160.7,49.1 163.1,48.4 165.4,47.6 167.8,46.7 170.2,45.7 172.6,44.6 175.0,43.4 177.3,42.2 179.7,40.8 182.1,39.4 184.5,37.9 186.9,36.4 189.2,34.8 191.6,33.2 194.0,31.6" fill="none" stroke="#3b82f6" stroke-width="1.5"/>
</svg>