<svg xmlns="http://www.w3.org/2000/svg" viewBox="0 0 200 60">
<line x1="6" y1="30.0" x2="194" y2="30.0" stroke="#ccc" stroke-width="0.75"/>
  <path d="M6.0 30.0 L6.7 29.5 L7.5 29.0 L8.2 28.5 L8.9 28.0 L9.7 27.5 L10.4 27.0 L11.2 26.5 L11.9 26.0 L12.6 25.5 L13.4 25.0 L14.1 24.5 L14.8 24.0 L15.6 23.5 L16.3 23.0 L17.1 22.6 L17.8 22.1 L18.5 21.6 L19.3 21.2 L20.0 20.7 L20.7 20.2 L21.5 19.8 L22.2 19.4 L23.0 18.9 L23.7 18.5 L24.4 18.1 L25.2 17.7 L25.9 17.3 L26.6 16.9 L27.4 16.5 L28.1 16.1 L28.9 15.7 L29.6 15.4 L30.3 15.0 L31.1 14.7 L31.8 14.3 L32.5 14.0 L33.3 13.7 L34.0 13.4 L34.8 13.1 L35.5 12.8 L36.2 12.5 L37.0 12.3 L37.7 12.0 L38.4 11.8 L39.2 11.5 L39.9 11.3 L40.7 11.1 L41.4 10.9 L42.1 10.7 L42.9 10.5 L43.6 10.4 L44.3 10.2 L45.1 10.1 L45.8 9.9 L46.5 9.8 L47.3 9.7 L48.0 9.6 L48.8 9.5 L49.5 9.5 L50.2 9.4 L51.0 9.4 L51.7 9.3 L52.4 9.3 L53.2 9.3 L53.9 9.3 L54.7 9.3 L55.4 9.4 L56.1 9.4 L56.9 9.5 L57.6 9.5 L58.3 9.6 L59.1 9.7 L59.8 9.8 L60.6 9.9 L61.3 10.1 L62.0 10.2 L62.8 10.4 L63.5 10.5 L64.2 10.7 L65.0 10.9 L65.7 11.1 L66.5 11.3 L67.2 11.5 L67.9 11.8 L68.7 12.0 L69.4 12.3 L70.1 12.5 L70.9 12.8 L71.6 13.1 L72.4 13.4 L73.1 13.7 L73.8 14.0 L74.6 14.3 L75.3 14.7 L76.0 15.0 L76.8 15.4 L77.5 15.7 L78.3 16.1 L79.0 16.5 L79.7 16.9 L80.5 17.3 L81.2 17.7 L81.9 18.1 L82.7 18.5 L83.4 18.9 L84.1 19.4 L84.9 19.8 L85.6 20.2 L86.4 20.7 L87.1 21.2 L87.8 21.6 L88.6 22.1 L89.3 22.6 L90.0 23.0 L90.8 23.5 L91.5 24.0 L92.3 24.5 L93.0 25.0 L93.7 25.5 L94.5 26.0 L95.2 26.5 L95.9 27.0 L96.7 27.5 L97.4 28.0 L98.2 28.5 L98.9 29.0 L99.6 29.5 L100.4 30.0 L101.1 30.5 L101.8 31.0 L102.6 31.5 L103.3 32.0 L104.1 32.5 L104.8 33.0 L105.5 33.5 L106.3 34.0 L107.0 34.5 L107.7 35.0 L108.5 35.5 L109.2 36.0 L110.0 36.5 L110.7 37.0 L111.4 37.4 L112.2 37.9 L112.9 38.4 L113.6 38.8 L114.4 39.3 L115.1 39.8 L115.9 40.2 L116.6 40.6 L117.3 41.1 L118.1 41.5 L118.8 41.9 L119.5 42.3 L120.3 42.7 L121.0 43.1 L121.7 43.5 L122.5 43.9 L123.2 44.3 L124.0 44.6 L124.7 45.0 L125.4 45.3 L126.2 45.7 L126.9 46.0 L127.6 46.3 L128.4 46.6 L129.1 46.9 L129.9 47.2 L130.6 47.5 L131.3 47.7 L132.1 48.0 L132.8 48.2 L133.5 48.5 L134.3 48.7 L135.0 48.9 L135.8 49.1 L136.5 49.3 L137.2 49.5 L138.0 49.6 L138.7 49.8 L139.4 49.9 L140.2 50.1 L140.9 50.2 L141.7 50.3 L142.4 50.4 L143.1 50.5 L143.9 50.5 L144.6 50.6 L145.3 50.6 L146.1 50.7 L146.8 50.7 L147.6 50.7 L148.3 50.7 L149.0 50.7 L149.8 50.6 L150.5 50.6 L151.2 50.5 L152.0 50.5 L152.7 50.4 L153.5 50.3 L154.2 50.2 L154.9 50.1 L155.7 49.9 L156.4 49.8 L157.1 49.6 L157.9 49.5 L158.6 49.3 L159.3 49.1 L160.1 48.9 L160.8 48.7 L161.6 48.5 L162.3 48.2 L163.0 48.0 L163.8 47.7 L164.5 47.5 L165.2 47.2 L166.0 46.9 L166.7 46.6 L167.5 46.3 L168.2 46.0 L168.9 45.7 L169.7 45.3 L170.4 45.0 L171.1 44.6 L171.9 44.3 L172.6 43.9 L173.4 43.5 L174.1 43.1 L174.8 42.7 L175.6 42.3 L176.3 41.9 L177.0 41.5 L177.8 41.1 L178.5 40.6 L179.3 40.2 L180.0 39.8 L180.7 39.3 L181.5 38.8 L182.2 38.4 L182.9 37.9 L183.7 37.4 L184.4 37.0 L185.2 36.5 L185.9 36.0 L186.6 35.5 L187.4 35.0 L188.1 34.5 L188.8 34.0 L189.6 33.5 L190.3 33.0 L191.1 32.5 L191.8 32.0 L192.5 31.5 L193.3 31.0 L194.0 30.5" fill="none" stroke="#3b82f6" stroke-width="1.5" stroke-linecap="round" stroke-linejoin="round"/>
</svg>