<svg xmlns="http://www.w3.org/2000/svg" viewBox="0 0 200 60">
<line x1="6" y1="30.0" x2="194" y2="30.0" stroke="#ccc" stroke-width="0.75"/>
  <path d="M6.0 9.3 L6.7 9.3 L7.5 9.3 L8.2 9.3 L8.9 9.3 L9.7 9.3 L10.4 9.3 L11.2 9.3 L11.9 9.3 L12.6 9.3 L13.4 9.3 L14.1 9.3 L14.8 9.3 L15.6 9.3 L16.3 9.3 L17.1 9.3 L17.8 9.3 L18.5 9.3 L19.3 9.3 L20.0 9.3 L20.7 9.3 L21.5 9.3 L22.2 9.3 L23.0 9.3 L23.7 9.3 L24.4 9.3 L25.2 9.3 L25.9 9.3 L26.6 9.3 L27.4 9.3 L28.1 9.3 L28.9 9.3 L29.6 9.3 L30.3 9.3 L31.1 9.3 L31.8 9.3 L32.5 9.3 L33.3 9.3 L34.0 9.3 L34.8 9.3 L35.5 9.3 L36.2 9.3 L37.0 9.3 L37.7 9.3 L38.4 9.3 L39.2 9.3 L39.9 9.3 L40.7 9.3 L41.4 9.3 L42.1 9.3 L42.9 9.3 L43.6 9.3 L44.3 9.3 L45.1 9.3 L45.8 9.3 L46.5 9.3 L47.3 9.3 L48.0 9.3 L48.8 9.3 L49.5 9.3 L50.2 9.3 L51.0 9.3 L51.7 9.3 L52.4 9.3 L53.2 9.3 L53.9 9.3 L54.7 9.3 L55.4 9.3 L56.1 9.3 L56.9 9.3 L57.6 9.3 L58.3 9.3 L59.1 9.3 L59.8 9.3 L60.6 9.3 L61.3 9.3 L62.0 9.3 L62.8 9.3 L63.5 9.3 L64.2 9.3 L65.0 9.3 L65.7 9.3 L66.5 9.3 L67.2 9.3 L67.9 9.3 L68.7 9.3 L69.4 9.3 L70.1 9.3 L70.9 9.3 L71.6 9.3 L72.4 9.3 L73.1 9.3 L73.8 9.3 L74.6 9.3 L75.3 9.3 L76.0 9.3 L76.8 9.3 L77.5 9.3 L78.3 9.3 L79.0 9.3 L79.7 9.3 L80.5 9.3 L81.2 9.3 L81.9 9.3 L82.7 9.3 L83.4 9.3 L84.1 9.3 L84.9 9.3 L85.6 9.3 L86.4 9.3 L87.1 9.3 L87.8 9.3 L88.6 9.3 L89.3 9.3 L90.0 9.3 L90.8 9.3 L91.5 9.3 L92.3 9.3 L93.0 9.3 L93.7 9.3 L94.5 9.3 L95.2 9.3 L95.9 9.3 L96.7 9.3 L97.4 9.3 L98.2 9.3 L98.9 9.3 L99.6 9.3 L100.4 50.7 L101.1 50.7 L101.8 50.7 L102.6 50.7 L103.3 50.7 L104.1 50.7 L104.8 50.7 L105.5 50.7 L106.3 50.7 L107.0 50.7 L107.7 50.7 L108.5 50.7 L109.2 50.7 L110.0 50.7 L110.7 50.7 L111.4 50.7 L112.2 50.7 L112.9 50.7 L113.6 50.7 L114.4 50.7 L115.1 50.7 L115.9 50.7 L116.6 50.7 L117.3 50.7 L118.1 50.7 L118.8 50.7 L119.5 50.7 L120.3 50.7 L121.0 50.7 L121.7 50.7 L122.5 50.7 L123.2 50.7 L124.0 50.7 L124.7 50.7 L125.4 50.7 L126.2 50.7 L126.9 50.7 L127.6 50.7 L128.4 50.7 L129.1 50.7 L129.9 50.7 L130.6 50.7 L131.3 50.7 L132.1 50.7 L132.8 50.7 L133.5 50.7 L134.3 50.7 L135.0 50.7 L135.8 50.7 L136.5 50.7 L137.2 50.7 L138.0 50.7 L138.7 50.7 L139.4 50.7 L140.2 50.7 L140.9 50.7 L141.7 50.7 L142.4 50.7 L143.1 50.7 L143.9 50.7 L144.6 50.7 L145.3 50.7 L146.1 50.7 L146.8 50.7 L147.6 50.7 L148.3 50.7 L149.0 50.7 L149.8 50.7 L150.5 50.7 L151.2 50.7 L152.0 50.7 L152.7 50.7 L153.5 50.7 L154.2 50.7 L154.9 50.7 L155.7 50.7 L156.4 50.7 L157.1 50.7 L157.9 50.7 L158.6 50.7 L159.3 50.7 L160.1 50.7 L160.8 50.7 L161.6 50.7 L162.3 50.7 L163.0 50.7 L163.8 50.7 L164.5 50.7 L165.2 50.7 L166.0 50.7 L166.7 50.7 L167.5 50.7 L168.2 50.7 L168.9 50.7 L169.7 50.7 L170.4 50.7 L171.1 50.7 L171.9 50.7 L172.6 50.7 L173.4 50.7 L174.1 50.7 L174.8 50.7 L175.6 50.7 L176.3 50.7 L177.0 50.7 L177.8 50.7 L178.5 50.7 L179.3 50.7 L180.0 50.7 L180.7 50.7 L181.5 50.7 L182.2 50.7 L182.9 50.7 L183.7 50.7 L184.4 50.7 L185.2 50.7 L185.9 50.7 L186.6 50.7 L187.4 50.7 L188.1 50.7 L188.8 50.7 L189.6 50.7 L190.3 50.7 L191.1 50.7 L191.8 50.7 L192.5 50.7 L193.3 50.7 L194.0 50.7" fill="none" stroke="#3b82f6" stroke-width="1.5" stroke-linecap="round" stroke-linejoin="round"/>
</svg>