<svg xmlns="http://www.w3.org/2000/svg" width="200" height="60" viewBox="0 0 200 60">
  <line x1="6" y1="30.0" x2="194" y2="30.0" stroke="#999" stroke-width="1"/>
  <polyline points="6.0,9.3 8.4,9.3 10.8,9.3 13.1,9.3 15.5,9.3 17.9,9.3 20.3,9.3 22.7,9.3 25.0,9.3 27.4,9.3 29.8,9.3 32.2,9.3 34.6,9.3 36.9,9.3 39.3,9.3 41.7,9.3 44.1,9.3 46.5,9.3 48.8,9.3 51.2,9.3 53.6,9.3 56.0,9.3 58.4,9.3 60.7,9.3 63.1,9.3 65.5,9.3 67.9,9.3 70.3,9.3 72.6,9.3 75.0,9.3 77.4,9.3 79.8,9.3 82.2,9.3 84.5,9.3 86.9,9.3 89.3,9.3 91.7,9.3 94.1,9.3 96.4,9.3 98.8,9.3 101.2,50.7 103.6,50.7 105.9,50.7 108.3,50.7 110.7,50.7 113.1,50.7 115.5,50.7 117.8,50.7 120.2,50.7 122.6,50.7 125.0,50.7 127.4,50.7 129.7,50.7 132.1,50.7 134.5,50.7 136.9,50.7 139.3,50.7 141.6,50.7 144.0,50.7 146.4,50.7 148.8,50.7 151.2,50.7 153.5,50.7 155.9,50.7 158.3,50.7 160.7,50.7 163.1,50.7 165.4,50.7 167.8,50.7 170.2,50.7 172.6,50.7 175.0,50.7 177.3,50.7 179.7,50.7 182.1,50.7 184.5,50.7 186.9,50.7 189.2,50.7 191.6,50.7 194.0,50.7" fill="none" stroke="#3b82f6" stroke-width="3"/>
</svg>