<svg xmlns="http://www.w3.org/2000/svg" viewBox="0 0 200 60">
<line x1="6" y1="28.8" x2="194" y2="28.8" stroke="#ccc" stroke-width="0.75"/>
  <path d="M6.0 9.3 L6.7 9.3 L7.5 9.3 L8.2 9.3 L8.9 9.3 L9.7 9.3 L10.4 9.3 L11.2 9.3 L11.9 9.3 L12.6 9.3 L13.4 9.3 L14.1 9.3 L14.8 9.3 L15.6 9.3 L16.3 9.3 L17.1 9.3 L17.8 9.3 L18.5 9.3 L19.3 9.3 L20.0 9.3 L20.7 9.3 L21.5 9.3 L22.2 9.3 L23.0 9.3 L23.7 9.3 L24.4 9.3 L25.2 9.3 L25.9 9.3 L26.6 9.3 L27.4 9.3 L28.1 9.3 L28.9 9.3 L29.6 9.3 L30.3 9.3 L31.1 9.3 L31.8 9.3 L32.5 9.3 L33.3 9.3 L34.0 9.3 L34.8 9.3 L35.5 9.3 L36.2 9.3 L37.0 9.3 L37.7 21.5 L38.4 21.5 L39.2 21.5 L39.9 21.5 L40.7 21.5 L41.4 21.5 L42.1 21.5 L42.9 21.5 L43.6 21.5 L44.3 21.5 L45.1 21.5 L45.8 21.5 L46.5 21.5 L47.3 21.5 L48.0 21.5 L48.8 21.5 L49.5 21.5 L50.2 21.5 L51.0 21.5 L51.7 21.5 L52.4 21.5 L53.2 21.5 L53.9 21.5 L54.7 21.5 L55.4 21.5 L56.1 21.5 L56.9 21.5 L57.6 21.5 L58.3 21.5 L59.1 21.5 L59.8 21.5 L60.6 21.5 L61.3 21.5 L62.0 21.5 L62.8 21.5 L63.5 21.5 L64.2 21.5 L65.0 21.5 L65.7 21.5 L66.5 21.5 L67.2 21.5 L67.9 21.5 L68.7 21.5 L69.4 41.0 L70.1 41.0 L70.9 41.0 L71.6 41.0 L72.4 41.0 L73.1 41.0 L73.8 41.0 L74.6 41.0 L75.3 41.0 L76.0 41.0 L76.8 41.0 L77.5 41.0 L78.3 41.0 L79.0 41.0 L79.7 41.0 L80.5 41.0 L81.2 41.0 L81.9 41.0 L82.7 41.0 L83.4 41.0 L84.1 41.0 L84.9 41.0 L85.6 41.0 L86.4 41.0 L87.1 41.0 L87.8 41.0 L88.6 41.0 L89.3 41.0 L90.0 41.0 L90.8 41.0 L91.5 41.0 L92.3 41.0 L93.0 41.0 L93.7 41.0 L94.5 41.0 L95.2 41.0 L95.9 41.0 L96.7 41.0 L97.4 41.0 L98.2 41.0 L98.9 41.0 L99.6 41.0 L100.4 50.7 L101.1 50.7 L101.8 50.7 L102.6 50.7 L103.3 50.7 L104.1 50.7 L104.8 50.7 L105.5 50.7 L106.3 50.7 L107.0 50.7 L107.7 50.7 L108.5 50.7 L109.2 50.7 L110.0 50.7 L110.7 50.7 L111.4 50.7 L112.2 50.7 L112.9 50.7 L113.6 50.7 L114.4 50.7 L115.1 50.7 L115.9 50.7 L116.6 50.7 L117.3 50.7 L118.1 50.7 L118.8 50.7 L119.5 50.7 L120.3 50.7 L121.0 50.7 L121.7 50.7 L122.5 50.7 L123.2 50.7 L124.0 50.7 L124.7 50.7 L125.4 50.7 L126.2 50.7 L126.9 50.7 L127.6 50.7 L128.4 50.7 L129.1 50.7 L129.9 50.7 L130.6 50.7 L131.3 50.7 L132.1 33.7 L132.8 33.7 L133.5 33.7 L134.3 33.7 L135.0 33.7 L135.8 33.7 L136.5 33.7 L137.2 33.7 L138.0 33.7 L138.7 33.7 L139.4 33.7 L140.2 33.7 L140.9 33.7 L141.7 33.7 L142.4 33.7 L143.1 33.7 L143.9 33.7 L144.6 33.7 L145.3 33.7 L146.1 33.7 L146.8 33.7 L147.6 33.7 L148.3 33.7 L149.0 33.7 L149.8 33.7 L150.5 33.7 L151.2 33.7 L152.0 33.7 L152.7 33.7 L153.5 33.7 L154.2 33.7 L154.9 33.7 L155.7 33.7 L156.4 33.7 L157.1 33.7 L157.9 33.7 L158.6 33.7 L159.3 33.7 L160.1 33.7 L160.8 33.7 L161.6 33.7 L162.3 33.7 L163.0 33.7 L163.8 14.2 L164.5 14.2 L165.2 14.2 L166.0 14.2 L166.7 14.2 L167.5 14.2 L168.2 14.2 L168.9 14.2 L169.7 14.2 L170.4 14.2 L171.1 14.2 L171.9 14.2 L172.6 14.2 L173.4 14.2 L174.1 14.2 L174.8 14.2 L175.6 14.2 L176.3 14.2 L177.0 14.2 L177.8 14.2 L178.5 14.2 L179.3 14.2 L180.0 14.2 L180.7 14.2 L181.5 14.2 L182.2 14.2 L182.9 14.2 L183.7 14.2 L184.4 14.2 L185.2 14.2 L185.9 14.2 L186.6 14.2 L187.4 14.2 L188.1 14.2 L188.8 14.2 L189.6 14.2 L190.3 14.2 L191.1 14.2 L191.8 14.2 L192.5 14.2 L193.3 14.2 L194.0 14.2" fill="none" stroke="#3b82f6" stroke-width="1.5" stroke-linecap="round" stroke-linejoin="round"/>
</svg>