<svg xmlns="http://www.w3.org/2000/svg" width="200" height="60" viewBox="0 0 200 60">
  <line x1="6" y1="28.8" x2="194" y2="28.8" stroke="#999" stroke-width="0.5"/>
  <polyline points="6.0,9.3 8.4,9.3 10.8,9.3 13.1,9.3 15.5,9.3 17.9,9.3 20.3,9.3 22.7,9.3 25.0,9.3 27.4,9.3 29.8,9.3 32.2,9.3 34.6,9.3 36.9,9.3 39.3,21.5 41.7,21.5 44.1,21.5 46.5,21.5 48.8,21.5 51.2,21.5 53.6,21.5 56.0,21.5 58.4,21.5 60.7,21.5 63.1,21.5 65.5,21.5 67.9,21.5 70.3,41.0 72.6,41.0 75.0,41.0 77.4,41.0 79.8,41.0 82.2,41.0 84.5,41.0 86.9,41.0 89.3,41.0 91.7,41.0 94.1,41.0 96.4,41.0 98.8,41.0 101.2,50.7 103.6,50.7 105.9,50.7 108.3,50.7 110.7,50.7 113.1,50.7 115.5,50.7 117.8,50.7 120.2,50.7 122.6,50.7 125.0,50.7 127.4,50.7 129.7,50.7 132.1,50.7 134.5,33.7 136.9,33.7 139.3,33.7 141.6,33.7 144.0,33.7 146.4,33.7 148.8,33.7 151.2,33.7 153.5,33.7 155.9,33.7 158.3,33.7 160.7,33.7 163.1,33.7 165.4,14.2 167.8,14.2 170.2,14.2 172.6,14.2 175.0,14.2 177.3,14.2 179.7,14.2 182.1,14.2 184.5,14.2 186.9,14.2 189.2,14.2 191.6,14.2 194.0,14.2" fill="none" stroke="#3b82f6" stroke-width="1.5"/>
</svg>