<svg xmlns="http://www.w3.org/2000/svg" viewBox="0 0 200 60">
<line x1="6" y1="30.0" x2="194" y2="30.0" stroke="#ccc" stroke-width="0.75"/>
  <path d="M6.0 50.7 L6.7 50.0 L7.5 49.4 L8.2 48.8 L8.9 48.1 L9.7 47.5 L10.4 46.8 L11.2 46.2 L11.9 45.5 L12.6 44.9 L13.4 44.2 L14.1 43.6 L14.8 42.9 L15.6 42.3 L16.3 41.6 L17.1 41.0 L17.8 40.3 L18.5 39.7 L19.3 39.1 L20.0 38.4 L20.7 37.8 L21.5 37.1 L22.2 36.5 L23.0 35.8 L23.7 35.2 L24.4 34.5 L25.2 33.9 L25.9 33.2 L26.6 32.6 L27.4 31.9 L28.1 31.3 L28.9 30.6 L29.6 30.0 L30.3 29.4 L31.1 28.7 L31.8 28.1 L32.5 27.4 L33.3 26.8 L34.0 26.1 L34.8 25.5 L35.5 24.8 L36.2 24.2 L37.0 23.5 L37.7 22.9 L38.4 22.2 L39.2 21.6 L39.9 20.9 L40.7 20.3 L41.4 19.7 L42.1 19.0 L42.9 18.4 L43.6 17.7 L44.3 17.1 L45.1 16.4 L45.8 15.8 L46.5 15.1 L47.3 14.5 L48.0 13.8 L48.8 13.2 L49.5 12.5 L50.2 11.9 L51.0 11.2 L51.7 10.6 L52.4 10.0 L53.2 9.3 L53.9 9.3 L54.7 9.3 L55.4 9.3 L56.1 9.3 L56.9 9.3 L57.6 9.3 L58.3 9.3 L59.1 9.3 L59.8 9.3 L60.6 9.3 L61.3 9.3 L62.0 9.3 L62.8 9.3 L63.5 9.3 L64.2 9.3 L65.0 9.3 L65.7 9.3 L66.5 9.3 L67.2 9.3 L67.9 9.3 L68.7 9.3 L69.4 9.3 L70.1 9.3 L70.9 9.3 L71.6 9.3 L72.4 9.3 L73.1 9.3 L73.8 9.3 L74.6 9.3 L75.3 9.3 L76.0 9.3 L76.8 9.3 L77.5 9.3 L78.3 9.3 L79.0 9.3 L79.7 9.3 L80.5 9.3 L81.2 9.3 L81.9 9.3 L82.7 9.3 L83.4 9.3 L84.1 9.3 L84.9 9.3 L85.6 9.3 L86.4 9.3 L87.1 9.3 L87.8 9.3 L88.6 9.3 L89.3 9.3 L90.0 9.3 L90.8 9.3 L91.5 9.3 L92.3 9.3 L93.0 9.3 L93.7 9.3 L94.5 9.3 L95.2 9.3 L95.9 9.3 L96.7 9.3 L97.4 9.3 L98.2 9.3 L98.9 9.3 L99.6 9.3 L100.4 9.3 L101.1 10.0 L101.8 10.6 L102.6 11.2 L103.3 11.9 L104.1 12.5 L104.8 13.2 L105.5 13.8 L106.3 14.5 L107.0 15.1 L107.7 15.8 L108.5 16.4 L109.2 17.1 L110.0 17.7 L110.7 18.4 L111.4 19.0 L112.2 19.7 L112.9 20.3 L113.6 20.9 L114.4 21.6 L115.1 22.2 L115.9 22.9 L116.6 23.5 L117.3 24.2 L118.1 24.8 L118.8 25.5 L119.5 26.1 L120.3 26.8 L121.0 27.4 L121.7 28.1 L122.5 28.7 L123.2 29.4 L124.0 30.0 L124.7 30.6 L125.4 31.3 L126.2 31.9 L126.9 32.6 L127.6 33.2 L128.4 33.9 L129.1 34.5 L129.9 35.2 L130.6 35.8 L131.3 36.5 L132.1 37.1 L132.8 37.8 L133.5 38.4 L134.3 39.1 L135.0 39.7 L135.8 40.3 L136.5 41.0 L137.2 41.6 L138.0 42.3 L138.7 42.9 L139.4 43.6 L140.2 44.2 L140.9 44.9 L141.7 45.5 L142.4 46.2 L143.1 46.8 L143.9 47.5 L144.6 48.1 L145.3 48.8 L146.1 49.4 L146.8 50.0 L147.6 50.7 L148.3 50.7 L149.0 50.7 L149.8 50.7 L150.5 50.7 L151.2 50.7 L152.0 50.7 L152.7 50.7 L153.5 50.7 L154.2 50.7 L154.9 50.7 L155.7 50.7 L156.4 50.7 L157.1 50.7 L157.9 50.7 L158.6 50.7 L159.3 50.7 L160.1 50.7 L160.8 50.7 L161.6 50.7 L162.3 50.7 L163.0 50.7 L163.8 50.7 L164.5 50.7 L165.2 50.7 L166.0 50.7 L166.7 50.7 L167.5 50.7 L168.2 50.7 L168.9 50.7 L169.7 50.7 L170.4 50.7 L171.1 50.7 L171.9 50.7 L172.6 50.7 L173.4 50.7 L174.1 50.7 L174.8 50.7 L175.6 50.7 L176.3 50.7 L177.0 50.7 L177.8 50.7 L178.5 50.7 L179.3 50.7 L180.0 50.7 L180.7 50.7 L181.5 50.7 L182.2 50.7 L182.9 50.7 L183.7 50.7 L184.4 50.7 L185.2 50.7 L185.9 50.7 L186.6 50.7 L187.4 50.7 L188.1 50.7 L188.8 50.7 L189.6 50.7 L190.3 50.7 L191.1 50.7 L191.8 50.7 L192.5 50.7 L193.3 50.7 L194.0 50.7" fill="none" stroke="#3b82f6" stroke-width="1.5" stroke-linecap="round" stroke-linejoin="round"/>
</svg>