<svg xmlns="http://www.w3.org/2000/svg" width="200" height="60" viewBox="0 0 200 60">
  <line x1="6" y1="30.0" x2="194" y2="30.0" stroke="#999" stroke-width="1"/>
  <polyline points="6.0,50.7 8.4,48.6 10.8,46.6 13.1,44.5 15.5,42.4 17.9,40.3 20.3,38.3 22.7,36.2 25.0,34.1 27.4,32.1 29.8,30.0 32.2,27.9 34.6,25.9 36.9,23.8 39.3,21.7 41.7,19.7 44.1,17.6 46.5,15.5 48.8,13.4 51.2,11.4 53.6,9.3 56.0,9.3 58.4,9.3 60.7,9.3 63.1,9.3 65.5,9.3 67.9,9.3 70.3,9.3 72.6,9.3 75.0,9.3 77.4,9.3 79.8,9.3 82.2,9.3 84.5,9.3 86.9,9.3 89.3,9.3 91.7,9.3 94.1,9.3 96.4,9.3 98.8,9.3 101.2,9.3 103.6,11.4 105.9,13.4 108.3,15.5 110.7,17.6 113.1,19.7 115.5,21.7 117.8,23.8 120.2,25.9 122.6,27.9 125.0,30.0 127.4,32.1 129.7,34.1 132.1,36.2 134.5,38.3 136.9,40.3 139.3,42.4 141.6,44.5 144.0,46.6 146.4,48.6 148.8,50.7 151.2,50.7 153.5,50.7 155.9,50.7 158.3,50.7 160.7,50.7 163.1,50.7 165.4,50.7 167.8,50.7 170.2,50.7 172.6,50.7 175.0,50.7 177.3,50.7 179.7,50.7 182.1,50.7 184.5,50.7 186.9,50.7 189.2,50.7 191.6,50.7 194.0,50.7" fill="none" stroke="#3b82f6" stroke-width="3"/>
</svg>