<svg xmlns="http://www.w3.org/2000/svg" viewBox="0 0 200 60">
<line x1="6" y1="30.0" x2="194" y2="30.0" stroke="#ccc" stroke-width="0.75"/>
  <path d="M6.0 9.3 L6.7 9.6 L7.5 10.0 L8.2 10.3 L8.9 10.6 L9.7 10.9 L10.4 11.2 L11.2 11.6 L11.9 11.9 L12.6 12.2 L13.4 12.5 L14.1 12.9 L14.8 13.2 L15.6 13.5 L16.3 13.8 L17.1 14.2 L17.8 14.5 L18.5 14.8 L19.3 15.1 L20.0 15.5 L20.7 15.8 L21.5 16.1 L22.2 16.4 L23.0 16.7 L23.7 17.1 L24.4 17.4 L25.2 17.7 L25.9 18.0 L26.6 18.4 L27.4 18.7 L28.1 19.0 L28.9 19.3 L29.6 19.7 L30.3 20.0 L31.1 20.3 L31.8 20.6 L32.5 20.9 L33.3 21.3 L34.0 21.6 L34.8 21.9 L35.5 22.2 L36.2 22.6 L37.0 22.9 L37.7 23.2 L38.4 23.5 L39.2 23.9 L39.9 24.2 L40.7 24.5 L41.4 24.8 L42.1 25.2 L42.9 25.5 L43.6 25.8 L44.3 26.1 L45.1 26.4 L45.8 26.8 L46.5 27.1 L47.3 27.4 L48.0 27.7 L48.8 28.1 L49.5 28.4 L50.2 28.7 L51.0 29.0 L51.7 29.4 L52.4 29.7 L53.2 30.0 L53.9 30.3 L54.7 30.6 L55.4 31.0 L56.1 31.3 L56.9 31.6 L57.6 31.9 L58.3 32.3 L59.1 32.6 L59.8 32.9 L60.6 33.2 L61.3 33.6 L62.0 33.9 L62.8 34.2 L63.5 34.5 L64.2 34.8 L65.0 35.2 L65.7 35.5 L66.5 35.8 L67.2 36.1 L67.9 36.5 L68.7 36.8 L69.4 37.1 L70.1 37.4 L70.9 37.8 L71.6 38.1 L72.4 38.4 L73.1 38.7 L73.8 39.1 L74.6 39.4 L75.3 39.7 L76.0 40.0 L76.8 40.3 L77.5 40.7 L78.3 41.0 L79.0 41.3 L79.7 41.6 L80.5 42.0 L81.2 42.3 L81.9 42.6 L82.7 42.9 L83.4 43.3 L84.1 43.6 L84.9 43.9 L85.6 44.2 L86.4 44.5 L87.1 44.9 L87.8 45.2 L88.6 45.5 L89.3 45.8 L90.0 46.2 L90.8 46.5 L91.5 46.8 L92.3 47.1 L93.0 47.5 L93.7 47.8 L94.5 48.1 L95.2 48.4 L95.9 48.8 L96.7 49.1 L97.4 49.4 L98.2 49.7 L98.9 50.0 L99.6 50.4 L100.4 50.7 L101.1 50.4 L101.8 50.0 L102.6 49.7 L103.3 49.4 L104.1 49.1 L104.8 48.8 L105.5 48.4 L106.3 48.1 L107.0 47.8 L107.7 47.5 L108.5 47.1 L109.2 46.8 L110.0 46.5 L110.7 46.2 L111.4 45.8 L112.2 45.5 L112.9 45.2 L113.6 44.9 L114.4 44.5 L115.1 44.2 L115.9 43.9 L116.6 43.6 L117.3 43.3 L118.1 42.9 L118.8 42.6 L119.5 42.3 L120.3 42.0 L121.0 41.6 L121.7 41.3 L122.5 41.0 L123.2 40.7 L124.0 40.3 L124.7 40.0 L125.4 39.7 L126.2 39.4 L126.9 39.1 L127.6 38.7 L128.4 38.4 L129.1 38.1 L129.9 37.8 L130.6 37.4 L131.3 37.1 L132.1 36.8 L132.8 36.5 L133.5 36.1 L134.3 35.8 L135.0 35.5 L135.8 35.2 L136.5 34.8 L137.2 34.5 L138.0 34.2 L138.7 33.9 L139.4 33.6 L140.2 33.2 L140.9 32.9 L141.7 32.6 L142.4 32.3 L143.1 31.9 L143.9 31.6 L144.6 31.3 L145.3 31.0 L146.1 30.6 L146.8 30.3 L147.6 30.0 L148.3 29.7 L149.0 29.4 L149.8 29.0 L150.5 28.7 L151.2 28.4 L152.0 28.1 L152.7 27.7 L153.5 27.4 L154.2 27.1 L154.9 26.8 L155.7 26.4 L156.4 26.1 L157.1 25.8 L157.9 25.5 L158.6 25.2 L159.3 24.8 L160.1 24.5 L160.8 24.2 L161.6 23.9 L162.3 23.5 L163.0 23.2 L163.8 22.9 L164.5 22.6 L165.2 22.2 L166.0 21.9 L166.7 21.6 L167.5 21.3 L168.2 20.9 L168.9 20.6 L169.7 20.3 L170.4 20.0 L171.1 19.7 L171.9 19.3 L172.6 19.0 L173.4 18.7 L174.1 18.4 L174.8 18.0 L175.6 17.7 L176.3 17.4 L177.0 17.1 L177.8 16.7 L178.5 16.4 L179.3 16.1 L180.0 15.8 L180.7 15.5 L181.5 15.1 L182.2 14.8 L182.9 14.5 L183.7 14.2 L184.4 13.8 L185.2 13.5 L185.9 13.2 L186.6 12.9 L187.4 12.5 L188.1 12.2 L188.8 11.9 L189.6 11.6 L190.3 11.2 L191.1 10.9 L191.8 10.6 L192.5 10.3 L193.3 10.0 L194.0 9.6" fill="none" stroke="#3b82f6" stroke-width="1.5" stroke-linecap="round" stroke-linejoin="round"/>
</svg>