<svg xmlns="http://www.w3.org/2000/svg" width="200" height="60" viewBox="0 0 200 60">
  <line x1="6" y1="30.0" x2="194" y2="30.0" stroke="#999" stroke-width="0.5"/>
  <polyline points="6.0,9.3 8.4,10.3 10.8,11.4 13.1,12.4 15.5,13.4 17.9,14.5 20.3,15.5 22.7,16.6 25.0,17.6 27.4,18.6 29.8,19.7 32.2,20.7 34.6,21.7 36.9,22.8 39.3,23.8 41.7,24.8 44.1,25.9 46.5,26.9 48.8,27.9 51.2,29.0 53.6,30.0 56.0,31.0 58.4,32.1 60.7,33.1 63.1,34.1 65.5,35.2 67.9,36.2 70.3,37.2 72.6,38.3 75.0,39.3 77.4,40.3 79.8,41.4 82.2,42.4 84.5,43.4 86.9,44.5 89.3,45.5 91.7,46.6 94.1,47.6 96.4,48.6 98.8,49.7 101.2,50.7 103.6,49.7 105.9,48.6 108.3,47.6 110.7,46.6 113.1,45.5 115.5,44.5 117.8,43.4 120.2,42.4 122.6,41.4 125.0,40.3 127.4,39.3 129.7,38.3 132.1,37.2 134.5,36.2 136.9,35.2 139.3,34.1 141.6,33.1 144.0,32.1 146.4,31.0 148.8,30.0 151.2,29.0 153.5,27.9 155.9,26.9 158.3,25.9 160.7,24.8 163.1,23.8 165.4,22.8 167.8,21.7 170.2,20.7 172.6,19.7 175.0,18.6 177.3,17.6 179.7,16.6 182.1,15.5 184.5,14.5 186.9,13.4 189.2,12.4 191.6,11.4 194.0,10.3" fill="none" stroke="#3b82f6" stroke-width="1.5"/>
</svg>