<svg xmlns="http://www.w3.org/2000/svg" viewBox="0 0 200 60">
<line x1="6" y1="30.0" x2="194" y2="30.0" stroke="#ccc" stroke-width="0.75"/>
  <path d="M6.0 30.0 L6.7 25.7 L7.5 21.5 L8.2 17.8 L8.9 14.7 L9.7 12.3 L10.4 10.6 L11.2 9.6 L11.9 9.3 L12.6 9.6 L13.4 10.2 L14.1 11.1 L14.8 12.1 L15.6 12.9 L16.3 13.6 L17.1 14.1 L17.8 14.2 L18.5 14.1 L19.3 13.7 L20.0 13.2 L20.7 12.6 L21.5 12.1 L22.2 11.6 L23.0 11.3 L23.7 11.2 L24.4 11.3 L25.2 11.6 L25.9 12.0 L26.6 12.4 L27.4 12.8 L28.1 13.1 L28.9 13.4 L29.6 13.4 L30.3 13.4 L31.1 13.2 L31.8 12.9 L32.5 12.5 L33.3 12.2 L34.0 11.9 L34.8 11.7 L35.5 11.6 L36.2 11.7 L37.0 11.9 L37.7 12.1 L38.4 12.4 L39.2 12.7 L39.9 13.0 L40.7 13.2 L41.4 13.2 L42.1 13.2 L42.9 13.0 L43.6 12.8 L44.3 12.5 L45.1 12.2 L45.8 12.0 L46.5 11.8 L47.3 11.8 L48.0 11.8 L48.8 12.0 L49.5 12.2 L50.2 12.5 L51.0 12.7 L51.7 13.0 L52.4 13.1 L53.2 13.2 L53.9 13.1 L54.7 13.0 L55.4 12.7 L56.1 12.5 L56.9 12.2 L57.6 12.0 L58.3 11.8 L59.1 11.8 L59.8 11.8 L60.6 12.0 L61.3 12.2 L62.0 12.5 L62.8 12.8 L63.5 13.0 L64.2 13.2 L65.0 13.2 L65.7 13.2 L66.5 13.0 L67.2 12.7 L67.9 12.4 L68.7 12.1 L69.4 11.9 L70.1 11.7 L70.9 11.6 L71.6 11.7 L72.4 11.9 L73.1 12.2 L73.8 12.5 L74.6 12.9 L75.3 13.2 L76.0 13.4 L76.8 13.4 L77.5 13.4 L78.3 13.1 L79.0 12.8 L79.7 12.4 L80.5 12.0 L81.2 11.6 L81.9 11.3 L82.7 11.2 L83.4 11.3 L84.1 11.6 L84.9 12.1 L85.6 12.6 L86.4 13.2 L87.1 13.7 L87.8 14.1 L88.6 14.2 L89.3 14.1 L90.0 13.6 L90.8 12.9 L91.5 12.1 L92.3 11.1 L93.0 10.2 L93.7 9.6 L94.5 9.3 L95.2 9.6 L95.9 10.6 L96.7 12.3 L97.4 14.7 L98.2 17.8 L98.9 21.5 L99.6 25.7 L100.4 30.0 L101.1 34.3 L101.8 38.5 L102.6 42.2 L103.3 45.3 L104.1 47.7 L104.8 49.4 L105.5 50.4 L106.3 50.7 L107.0 50.4 L107.7 49.8 L108.5 48.9 L109.2 47.9 L110.0 47.1 L110.7 46.4 L111.4 45.9 L112.2 45.8 L112.9 45.9 L113.6 46.3 L114.4 46.8 L115.1 47.4 L115.9 47.9 L116.6 48.4 L117.3 48.7 L118.1 48.8 L118.8 48.7 L119.5 48.4 L120.3 48.0 L121.0 47.6 L121.7 47.2 L122.5 46.9 L123.2 46.6 L124.0 46.6 L124.7 46.6 L125.4 46.8 L126.2 47.1 L126.9 47.5 L127.6 47.8 L128.4 48.1 L129.1 48.3 L129.9 48.4 L130.6 48.3 L131.3 48.1 L132.1 47.9 L132.8 47.6 L133.5 47.3 L134.3 47.0 L135.0 46.8 L135.8 46.8 L136.5 46.8 L137.2 47.0 L138.0 47.2 L138.7 47.5 L139.4 47.8 L140.2 48.0 L140.9 48.2 L141.7 48.2 L142.4 48.2 L143.1 48.0 L143.9 47.8 L144.6 47.5 L145.3 47.3 L146.1 47.0 L146.8 46.9 L147.6 46.8 L148.3 46.9 L149.0 47.0 L149.8 47.3 L150.5 47.5 L151.2 47.8 L152.0 48.0 L152.7 48.2 L153.5 48.2 L154.2 48.2 L154.9 48.0 L155.7 47.8 L156.4 47.5 L157.1 47.2 L157.9 47.0 L158.6 46.8 L159.3 46.8 L160.1 46.8 L160.8 47.0 L161.6 47.3 L162.3 47.6 L163.0 47.9 L163.8 48.1 L164.5 48.3 L165.2 48.4 L166.0 48.3 L166.7 48.1 L167.5 47.8 L168.2 47.5 L168.9 47.1 L169.7 46.8 L170.4 46.6 L171.1 46.6 L171.9 46.6 L172.6 46.9 L173.4 47.2 L174.1 47.6 L174.8 48.0 L175.6 48.4 L176.3 48.7 L177.0 48.8 L177.8 48.7 L178.5 48.4 L179.3 47.9 L180.0 47.4 L180.7 46.8 L181.5 46.3 L182.2 45.9 L182.9 45.8 L183.7 45.9 L184.4 46.4 L185.2 47.1 L185.9 47.9 L186.6 48.9 L187.4 49.8 L188.1 50.4 L188.8 50.7 L189.6 50.4 L190.3 49.4 L191.1 47.7 L191.8 45.3 L192.5 42.2 L193.3 38.5 L194.0 34.3" fill="none" stroke="#3b82f6" stroke-width="1.5" stroke-linecap="round" stroke-linejoin="round"/>
</svg>