<svg xmlns="http://www.w3.org/2000/svg" width="200" height="60" viewBox="0 0 200 60">
  <line x1="6" y1="30.0" x2="194" y2="30.0" stroke="#999" stroke-width="1"/>
  <polyline points="6.0,30.0 8.4,16.8 10.8,9.5 13.1,9.3 15.5,12.3 17.9,13.7 20.3,12.6 22.7,10.9 25.0,10.9 27.4,12.2 29.8,12.9 32.2,12.3 34.6,11.3 36.9,11.2 39.3,12.2 41.7,12.7 44.1,12.2 46.5,11.4 48.8,11.4 51.2,12.2 53.6,12.7 56.0,12.2 58.4,11.4 60.7,11.4 63.1,12.2 65.5,12.7 67.9,12.2 70.3,11.2 72.6,11.3 75.0,12.3 77.4,12.9 79.8,12.2 82.2,10.9 84.5,10.9 86.9,12.6 89.3,13.7 91.7,12.3 94.1,9.3 96.4,9.5 98.8,16.8 101.2,30.0 103.6,43.2 105.9,50.5 108.3,50.7 110.7,47.7 113.1,46.3 115.5,47.4 117.8,49.1 120.2,49.1 122.6,47.8 125.0,47.1 127.4,47.7 129.7,48.7 132.1,48.8 134.5,47.8 136.9,47.3 139.3,47.8 141.6,48.6 144.0,48.6 146.4,47.8 148.8,47.3 151.2,47.8 153.5,48.6 155.9,48.6 158.3,47.8 160.7,47.3 163.1,47.8 165.4,48.8 167.8,48.7 170.2,47.7 172.6,47.1 175.0,47.8 177.3,49.1 179.7,49.1 182.1,47.4 184.5,46.3 186.9,47.7 189.2,50.7 191.6,50.5 194.0,43.2" fill="none" stroke="#3b82f6" stroke-width="1.5"/>
</svg>